<?xml version="1.0"?>
<svg xmlns="http://www.w3.org/2000/svg" width="1113" height="1579" viewBox="0 0 1113 1579" preserveAspectRatio="xMidYMid meet" role="img">
<title>Seme club originale Taotl</title>
<g transform="translate(0.000000,1579.000000) scale(0.100000,-0.100000)" fill="#17181d" stroke="none">
<path d="M6450 15259 c-177 -13 -268 -27 -315 -48 -27 -12 -69 -21 -97 -21 -35 0 -66 -8 -106 -30 -31 -16 -82 -36 -112 -45 -30 -9 -71 -27 -90 -40 -52 -35 -128 -68 -185 -78 -27 -5 -107 -11 -176 -14 -126 -5 -126 -5 -285 75 -104 52 -183 85 -229 95 -91 20 -233 44 -366 62 -138 19 -390 20 -450 1 -24 -8 -87 -26 -139 -41 -62 -17 -139 -50 -222 -96 -70 -38 -132 -69 -138 -69 -12 0 -84 -57 -122 -95 -43 -43 -137 -173 -163 -225 -16 -30 -43 -91 -61 -135 -17 -44 -46 -113 -64 -153 -20 -48 -36 -108 -46 -175 -7 -56 -21 -149 -29 -207 -8 -58 -20 -168 -26 -245 -5 -77 -15 -171 -21 -210 -6 -38 -11 -104 -11 -145 -1 -121 22 -364 39 -416 8 -27 24 -87 34 -134 29 -139 50 -210 76 -258 13 -25 24 -54 24 -64 0 -11 11 -47 24 -81 14 -34 37 -98 51 -142 15 -44 40 -109 55 -145 115 -263 165 -361 230 -446 19 -25 53 -67 75 -93 23 -25 62 -78 88 -118 26 -39 63 -91 84 -115 20 -23 46 -65 58 -93 16 -34 37 -60 68 -83 25 -17 65 -61 89 -95 48 -72 165 -213 272 -330 39 -44 108 -116 152 -160 45 -45 95 -100 110 -122 16 -22 48 -62 72 -90 25 -27 58 -70 75 -95 17 -25 67 -85 112 -135 44 -49 94 -108 111 -130 17 -22 41 -62 52 -90 12 -27 26 -70 31 -95 5 -26 6 -92 1 -158 -6 -87 -12 -120 -27 -140 -10 -15 -48 -41 -83 -59 -53 -26 -78 -32 -131 -32 -72 -1 -62 -5 -294 121 -67 35 -133 68 -147 71 -27 7 -56 29 -205 158 -78 67 -187 143 -336 235 -26 16 -64 40 -84 53 -21 13 -99 51 -174 86 -75 34 -198 97 -272 139 -75 42 -155 83 -178 91 -23 8 -67 30 -98 49 -31 19 -90 50 -131 69 -41 18 -106 53 -143 76 -38 23 -123 68 -191 100 -67 33 -137 72 -155 87 -34 28 -46 31 -226 54 -44 6 -104 20 -133 31 -39 14 -91 21 -192 26 -110 5 -153 3 -216 -11 -44 -10 -95 -21 -114 -26 -19 -4 -55 -11 -79 -15 -24 -4 -72 -20 -105 -35 -57 -25 -217 -116 -364 -205 -65 -40 -137 -110 -215 -212 -24 -32 -53 -76 -64 -98 -11 -22 -32 -83 -47 -135 -15 -52 -33 -112 -41 -132 -11 -29 -13 -67 -9 -165 3 -72 12 -145 20 -166 8 -20 14 -59 14 -86 0 -48 15 -125 45 -227 8 -28 19 -82 24 -120 5 -43 23 -99 45 -148 20 -43 51 -99 69 -125 31 -42 53 -86 102 -196 23 -53 82 -269 101 -370 23 -124 9 -193 -66 -350 -36 -73 -94 -238 -126 -358 -13 -48 -32 -104 -43 -125 -14 -28 -21 -69 -26 -162 -3 -69 -13 -147 -22 -173 -10 -34 -13 -71 -10 -120 3 -40 12 -103 20 -141 12 -56 21 -75 45 -95 17 -14 42 -51 55 -81 14 -31 45 -74 72 -100 26 -25 64 -70 85 -100 21 -30 73 -88 114 -127 42 -40 100 -85 129 -99 28 -15 97 -42 152 -61 55 -19 119 -45 142 -59 36 -21 58 -25 150 -28 59 -2 121 -9 136 -15 16 -6 43 -11 61 -11 19 0 53 -7 77 -16 27 -9 94 -17 174 -20 108 -4 147 -2 225 16 52 11 122 25 155 30 150 25 205 39 270 72 39 19 81 39 95 43 35 11 281 144 305 165 11 10 39 27 63 39 40 21 204 178 468 451 60 63 203 205 317 315 114 110 220 218 235 240 32 48 290 333 355 392 25 23 56 44 69 47 13 3 34 7 48 10 14 3 50 12 80 21 37 11 80 15 130 12 55 -3 88 -10 125 -30 28 -14 71 -47 97 -74 26 -26 59 -74 73 -106 14 -32 34 -70 45 -85 15 -20 24 -59 35 -150 8 -67 17 -127 20 -132 3 -5 14 -123 25 -262 14 -184 21 -415 26 -848 4 -327 6 -649 5 -715 -1 -72 -8 -137 -16 -162 -12 -35 -13 -89 -7 -305 5 -144 5 -285 1 -313 -4 -27 -10 -174 -13 -325 -3 -151 -8 -356 -12 -455 -3 -99 -7 -220 -8 -270 -2 -49 -8 -202 -14 -340 -10 -225 -17 -355 -52 -910 -6 -88 -15 -254 -21 -370 -5 -115 -15 -222 -21 -238 -6 -15 -14 -114 -19 -220 -5 -105 -13 -292 -18 -414 -5 -122 -15 -239 -21 -261 -5 -22 -17 -89 -25 -148 -7 -60 -21 -136 -30 -169 -9 -33 -20 -76 -25 -95 -4 -19 -13 -57 -20 -83 -11 -42 -11 -50 5 -67 10 -11 27 -20 37 -20 30 0 90 35 128 75 36 37 122 100 177 128 16 9 84 69 149 133 65 64 143 133 173 153 29 20 85 56 124 81 51 33 77 57 95 91 26 45 26 45 13 180 -6 73 -17 170 -23 214 -6 44 -14 134 -18 200 -4 66 -13 143 -19 170 -6 28 -15 113 -21 190 -6 77 -15 363 -20 635 -6 304 -7 539 -1 610 5 69 6 180 0 275 -5 88 -11 374 -14 635 -3 261 -8 482 -10 490 -5 17 12 498 24 665 5 61 13 151 20 200 23 185 51 477 65 690 9 121 20 333 26 470 17 402 40 660 72 805 11 52 30 124 41 160 11 36 35 94 52 130 18 36 48 79 67 97 18 18 59 44 92 59 49 22 68 26 120 22 35 -3 80 -15 106 -28 24 -12 78 -54 120 -94 86 -79 176 -153 289 -238 42 -31 101 -81 131 -111 30 -30 87 -76 125 -103 39 -26 84 -60 100 -74 58 -52 291 -199 404 -254 63 -31 120 -56 127 -56 14 0 273 -117 290 -131 17 -14 239 -89 266 -89 12 -1 41 -8 63 -16 22 -8 69 -17 105 -19 36 -2 94 -12 130 -23 36 -11 98 -25 138 -32 57 -11 97 -11 178 -3 66 7 117 8 137 2 18 -5 57 -9 87 -9 30 0 85 7 121 14 37 8 95 26 130 39 35 14 109 35 164 47 237 52 214 43 468 188 41 23 96 61 121 83 26 23 54 55 62 73 9 17 29 45 44 61 36 40 116 161 173 261 46 82 97 218 123 332 9 37 15 115 15 185 1 107 -4 139 -34 257 -19 74 -46 162 -61 195 -15 33 -37 70 -49 83 -12 13 -40 52 -62 87 -22 34 -57 88 -78 119 -20 30 -51 92 -67 136 -18 48 -30 101 -30 128 0 26 9 76 21 112 11 36 42 107 69 158 28 51 72 121 100 156 27 34 59 85 71 112 42 98 80 211 104 309 13 55 30 152 36 215 8 82 8 149 1 235 -6 72 -23 165 -41 232 -17 62 -40 132 -52 155 -42 84 -123 224 -152 261 -16 21 -54 54 -84 73 -31 20 -82 56 -114 82 -62 50 -149 107 -214 140 -22 11 -58 25 -80 30 -22 6 -78 24 -125 42 -47 17 -112 39 -145 50 -33 10 -98 21 -145 24 -51 4 -150 0 -245 -10 -114 -11 -186 -24 -250 -44 -49 -16 -139 -41 -200 -55 -60 -15 -130 -35 -155 -46 -25 -10 -70 -25 -100 -34 -30 -8 -71 -25 -91 -38 -20 -12 -71 -42 -114 -67 -79 -47 -298 -190 -420 -275 -110 -77 -272 -225 -405 -370 -31 -33 -85 -88 -120 -122 -36 -33 -93 -92 -127 -130 -72 -79 -158 -186 -207 -258 -19 -27 -113 -125 -208 -216 -95 -92 -198 -188 -228 -213 -52 -44 -178 -112 -264 -142 -33 -12 -47 -12 -100 2 -33 8 -80 26 -102 40 -23 13 -53 37 -67 53 -14 17 -33 54 -42 82 -13 40 -16 71 -12 133 5 73 15 113 77 311 22 73 61 169 99 250 16 33 49 87 73 120 25 33 89 134 143 225 55 91 125 197 156 235 68 85 119 163 119 184 0 9 14 36 30 61 16 25 35 61 41 80 6 19 31 78 56 130 25 52 54 116 64 142 10 26 31 67 46 90 14 24 46 85 70 136 24 50 64 129 89 175 209 371 297 543 365 707 21 52 50 116 63 141 34 65 116 254 165 384 23 61 55 154 71 208 16 54 35 137 42 185 8 54 12 170 11 306 -2 150 -7 244 -18 300 -9 45 -24 101 -35 126 -10 25 -28 87 -40 138 -14 61 -36 122 -67 180 -25 48 -59 106 -75 129 -16 24 -50 60 -75 80 -26 21 -94 85 -152 141 -58 57 -130 120 -161 139 -30 20 -67 44 -81 53 -42 30 -187 100 -205 100 -9 0 -37 6 -63 14 -120 38 -155 40 -351 25z"></path>
</g>
</svg>