<?xml version="1.0"?>
<svg xmlns="http://www.w3.org/2000/svg" width="872" height="1628" viewBox="0 0 872 1628" preserveAspectRatio="xMidYMid meet" role="img">
<title>Seme heart originale Taotl</title>
<g transform="translate(0.000000,1628.000000) scale(0.100000,-0.100000)" fill="#cf3545" stroke="none">
<path d="M6030 15747 c-3 -3 -52 -12 -110 -21 -192 -30 -234 -39 -310 -67 -126 -46 -272 -120 -336 -170 -33 -25 -76 -54 -95 -64 -19 -10 -81 -63 -138 -119 -116 -113 -271 -300 -324 -391 -19 -33 -62 -93 -95 -133 -33 -41 -84 -117 -113 -170 -29 -54 -71 -121 -92 -150 -22 -29 -50 -55 -63 -58 -13 -3 -35 -3 -49 0 -18 5 -35 25 -60 74 -59 112 -113 180 -174 218 -31 20 -88 68 -126 108 -142 143 -381 326 -524 400 -49 25 -130 61 -179 80 -50 19 -105 42 -122 51 -17 9 -77 25 -132 35 -55 11 -126 28 -157 39 -31 10 -98 25 -149 31 -59 8 -136 11 -215 7 -143 -8 -271 -22 -382 -42 -64 -12 -116 -33 -255 -102 -96 -48 -191 -99 -210 -114 -19 -14 -57 -37 -83 -51 -45 -22 -142 -106 -349 -298 -80 -74 -197 -211 -272 -319 -103 -148 -145 -216 -203 -334 -67 -135 -62 -119 -132 -492 -6 -27 -13 -75 -16 -105 -4 -30 -13 -93 -21 -139 -9 -57 -14 -161 -14 -325 1 -132 5 -284 9 -336 5 -52 19 -176 30 -275 13 -106 32 -211 46 -255 33 -105 65 -238 65 -274 0 -17 12 -74 26 -126 14 -52 30 -122 34 -155 5 -33 20 -91 34 -130 13 -38 38 -108 54 -155 17 -47 45 -159 62 -250 18 -91 50 -235 72 -320 21 -85 54 -193 73 -239 19 -46 53 -112 76 -148 25 -39 53 -101 70 -156 15 -51 33 -105 38 -122 6 -16 19 -64 30 -105 10 -41 31 -118 46 -170 15 -52 31 -111 35 -130 11 -54 59 -209 82 -265 12 -27 29 -77 39 -110 35 -112 67 -202 92 -251 13 -27 32 -74 42 -104 10 -30 51 -145 93 -255 41 -110 100 -276 132 -370 59 -174 130 -427 130 -468 0 -12 12 -53 26 -92 30 -83 79 -262 89 -325 4 -25 13 -57 21 -71 18 -35 103 -335 124 -439 10 -47 34 -148 53 -225 20 -77 41 -169 47 -205 15 -88 55 -245 90 -355 15 -49 31 -106 35 -125 4 -19 25 -89 46 -155 21 -66 49 -160 63 -210 13 -49 32 -112 41 -140 8 -27 23 -72 31 -100 9 -27 33 -97 55 -155 21 -58 49 -150 62 -205 13 -55 44 -152 69 -215 25 -63 49 -138 52 -165 3 -28 25 -102 47 -165 23 -63 46 -140 53 -170 7 -30 22 -73 33 -95 12 -22 35 -89 53 -150 49 -169 69 -234 100 -315 15 -41 39 -113 53 -160 14 -47 48 -161 76 -255 28 -93 61 -204 72 -245 12 -41 25 -88 30 -105 12 -41 61 -248 104 -435 20 -85 44 -184 55 -220 10 -36 28 -108 40 -160 12 -52 33 -133 47 -180 14 -47 34 -123 44 -170 10 -47 36 -146 59 -220 22 -74 47 -161 55 -192 8 -32 23 -84 34 -115 32 -96 109 -415 151 -625 22 -109 47 -212 55 -228 8 -16 24 -31 35 -35 10 -3 27 -2 38 4 10 5 28 31 39 58 12 26 40 89 62 139 23 50 41 106 41 125 0 31 9 63 71 249 12 36 30 92 41 125 11 33 33 90 49 126 16 36 36 90 45 120 15 51 62 177 104 279 10 25 24 77 30 115 7 39 21 102 33 140 11 39 34 99 52 135 32 66 63 159 85 260 7 30 27 89 46 130 18 41 38 95 43 120 6 25 25 83 42 130 45 124 71 216 111 394 6 28 19 69 30 92 10 24 31 87 47 141 15 54 50 148 76 208 26 61 57 151 70 200 13 50 51 173 85 275 34 102 68 223 76 269 8 46 20 93 26 105 6 11 17 46 24 76 6 30 42 147 78 260 37 113 76 246 87 297 11 50 31 119 44 154 14 35 30 90 36 123 6 34 15 77 20 97 5 20 9 46 9 57 0 11 15 56 34 99 18 44 37 95 41 114 4 18 16 52 25 74 10 22 24 67 33 100 8 33 30 96 49 141 19 44 40 102 47 130 6 27 20 69 30 94 11 25 28 70 39 100 11 30 35 91 52 135 18 44 36 100 40 125 5 25 22 74 39 110 17 36 35 88 40 116 6 29 21 76 34 105 34 73 77 187 77 201 0 13 38 114 80 209 16 36 32 83 36 105 10 52 61 192 85 230 10 17 19 43 19 57 0 15 8 46 19 69 25 58 41 105 52 153 8 35 21 75 79 235 7 19 32 85 56 145 23 61 48 128 54 150 7 22 25 63 40 90 15 28 30 70 34 95 4 25 18 65 32 89 25 44 68 163 123 336 16 50 36 104 45 120 8 17 41 95 72 175 30 80 71 179 89 220 19 41 41 93 48 115 8 22 35 83 61 136 25 53 46 104 46 114 0 9 18 56 40 103 23 48 52 123 65 167 34 114 71 212 100 261 14 23 39 78 56 121 17 43 40 101 51 128 25 61 62 160 77 200 37 105 127 397 145 470 33 130 68 263 87 330 11 39 26 97 34 130 8 33 18 72 24 87 5 14 20 88 32 164 12 77 26 162 30 189 23 132 31 187 38 275 4 52 17 147 28 210 49 260 53 314 52 600 -1 151 -5 320 -9 375 -9 121 -44 328 -69 410 -10 33 -24 103 -31 155 -6 52 -21 118 -32 145 -11 28 -23 68 -27 90 -4 22 -31 88 -60 147 -48 95 -64 118 -145 196 -50 49 -119 121 -153 160 -37 41 -95 92 -140 121 -43 28 -103 69 -133 90 -60 43 -248 139 -380 194 -47 20 -140 49 -207 66 -68 17 -139 37 -159 46 -23 9 -68 15 -118 15 -67 0 -101 6 -187 35 -80 27 -127 37 -204 41 -55 4 -102 4 -105 1z"></path>
</g>
</svg>