<?xml version="1.0" encoding="UTF-8"?>
<svg xmlns="http://www.w3.org/2000/svg" width="600" height="960" viewBox="0 0 600 960" role="img">
<title>WhatsApp Image 2026-07-25 at 11.42.53.jpeg</title>
<defs>
<clipPath id="card"><rect width="600" height="960" rx="28" ry="28"/></clipPath>
</defs>
<rect width="600" height="960" rx="28" fill="#f7f7f3"/>
<g clip-path="url(#card)">
<path fill="#d9782d" fill-rule="evenodd" d="M279 892L278 892L278 894L276 898L271 903L263 907L261 907L257 909L254 909L253 910L246 910L245 909L242 909L240 907L238 907L232 901L231 899L229 900L230 902L237 909L243 912L251 913L252 912L256 912L257 911L262 910L265 908L267 908L271 906L277 899ZM239 891L241 893L242 897L244 899L248 901L256 901L260 897L262 892L261 892L256 897L253 898L252 897L248 897L246 896L242 892L240 888ZM38 890L38 894L40 896L42 896L46 898L52 898L54 897L56 894L56 891L51 888L41 888ZM39 892L41 890L50 890L51 891L53 891L55 893L55 895L52 897L46 897L43 895L41 895L39 893ZM303 887L302 889L296 895L297 897L297 896L299 895L299 894L302 891ZM61 890L61 891L66 889L71 889L76 893L73 896L64 896L61 894L61 895L63 897L72 897L77 893L77 890L72 887L67 887ZM401 882L401 885L402 885L404 883L413 883L414 884L416 884L418 886L418 887L414 890L411 890L410 889L404 888L409 891L415 891L418 889L418 887L419 886L419 884L415 881L404 880ZM50 877L52 881L53 881L55 883L57 883L57 882L55 882L51 878L51 877L52 876L59 876L61 878L61 879L62 878L62 875L61 874L52 874ZM323 873L321 874L321 876L319 878L317 883L315 885L315 886L317 883L319 884L315 892L311 895L309 894L313 889L313 888L306 895L306 896L309 899L312 898L318 892L320 887L325 880L325 877L323 878L322 877ZM231 874L229 873L226 878L222 882L215 884L214 885L199 885L195 883L190 878L189 874L188 874L188 879L194 886L198 888L200 888L201 889L203 888L211 889L212 888L216 888L218 886L222 885L225 882L226 879L228 877L230 877L231 876ZM256 870L257 874L260 877L262 881L262 889L262 882L263 880L260 876L259 872L257 870ZM416 867L415 868L415 872L421 877L423 875L422 876L420 876L416 872L418 870L422 870L423 871L425 871L425 868L424 867ZM1 866L1 873L2 873L2 866ZM46 865L46 866L48 868L51 868L52 869L60 869L61 870L66 869L68 867L69 867L69 866L67 868L51 868ZM204 865L200 862L195 862L193 863L189 868L188 868L188 870L189 870L189 868L195 863L201 863ZM46 859L46 861L48 859L58 858L59 859L66 860L69 863L70 863L70 861L68 859L64 858L63 857L49 857ZM444 854L443 854L442 881L441 882L438 882L434 880L426 880L422 882L422 886L426 890L431 890L432 889L438 888L439 887L441 888L441 895L438 898L436 899L433 899L432 900L432 902L435 902L439 900L442 896L442 892L443 891L443 868L444 867ZM423 886L423 885L425 883L436 883L438 885L435 888L432 888L431 889L427 889ZM406 853L407 856L411 860L413 860L417 862L424 862L425 861L430 860L433 857L433 854L432 853L430 853L427 851L423 851L422 850L412 850L411 851L408 851ZM409 855L412 853L416 853L417 852L419 852L420 853L428 854L432 857L428 860L425 860L424 861L416 861L413 859L411 859L409 857ZM82 841L78 841L76 843L72 845L66 845L65 846L46 846L45 845L42 845L41 844L38 844L37 843L34 843L33 844L34 846L33 848L33 850L34 851L34 899L33 900L33 903L37 907L39 907L40 908L44 907L46 909L65 909L66 908L69 908L70 907L75 906L78 903L78 901L74 904L68 905L67 906L62 906L61 907L51 906L50 905L42 905L41 904L37 904L35 902L35 849L37 847L38 847L39 848L43 848L44 849L47 849L48 850L57 850L58 849L69 849L70 848L73 848L77 846L79 846L81 848L81 896L80 897L80 900L82 898L82 861L83 860L83 842ZM444 839L436 839L435 840L432 840L431 841L415 841L414 840L402 839L401 838L399 838L397 841L397 851L396 852L396 896L399 899L403 900L409 903L415 903L416 904L419 904L419 903L409 902L408 901L403 900L397 895L397 874L398 873L398 845L400 843L406 843L407 844L413 844L414 845L423 845L424 844L437 844L438 843L441 843L443 845L444 851L445 851L445 842L444 841ZM263 834L264 840L265 841L269 840L271 838L271 836L266 836L264 834ZM273 830L272 829L271 825L270 825L269 823L266 823L265 824L258 824L257 825L250 825L249 826L237 826L236 827L230 827L229 829L227 829L227 830L224 832L222 832L221 830L219 829L216 831L217 832L217 834L216 835L218 836L220 833L228 833L232 831L241 831L245 833L246 832L249 832L249 830L252 827L260 827L264 830L268 830L270 832L270 833L272 833ZM361 820L360 819L358 819L357 820L354 820L352 821L348 825L347 827L347 830L348 830L348 828L352 824L360 822ZM304 816L303 816L301 827L300 828L299 833L297 836L296 841L294 844L294 846L289 856L287 858L286 861L281 868L280 871L275 875L275 878L276 879L276 878L281 873L282 869L286 864L294 849L294 847L296 844L298 836L300 833L300 830L302 826L302 823L303 822ZM198 814L194 816L191 816L190 815L190 818L194 818L196 817L198 815ZM380 810L380 813L379 814L379 825L376 831L374 833L373 833L372 831L371 832L370 836L372 838L375 837L376 834L378 832L378 829L380 826L380 823L381 822L381 814L380 813ZM49 807L48 809L50 811L52 809L52 808L50 808ZM60 806L60 809L62 811L63 810L63 808L61 806ZM184 836L185 837L185 839L188 841L189 841L196 835L208 835L213 838L213 842L209 848L204 846L200 846L199 847L196 847L191 851L188 849L188 851L191 852L195 849L199 849L200 848L203 848L204 849L211 849L213 852L220 858L223 856L230 855L231 854L233 854L236 856L236 854L234 851L237 848L243 845L249 845L251 844L254 846L258 846L259 847L258 851L261 849L264 849L265 847L267 847L268 848L268 850L269 850L269 849L270 848L272 848L273 846L278 846L281 843L282 844L285 841L286 839L286 837L285 836L286 835L286 833L288 831L289 825L290 824L290 816L290 820L288 822L287 828L286 829L286 832L285 833L286 834L283 836L283 838L281 841L276 845L269 845L268 846L266 846L262 843L263 842L260 839L260 837L259 837L256 840L253 840L251 839L251 841L249 843L247 843L245 840L243 841L240 841L237 839L236 842L234 843L233 845L231 844L227 846L222 845L218 849L217 849L213 843L213 838L215 837L212 834L209 835L207 833L209 828L209 825L207 823L208 817L207 818L205 816L203 816L200 814L201 810L199 806L199 803L199 811L200 812L201 817L198 819L201 819L203 820L208 825L208 828L206 830L197 830L191 833L189 835L185 835ZM232 848L232 850L231 851L229 851L228 852L226 852L225 851L226 849L230 847ZM425 798L424 798L424 802L423 804L425 804ZM108 797L108 803L110 807L116 813L119 812L125 806L124 805L126 804L125 804L121 809L116 809L111 804L110 800L108 799ZM416 793L415 793L414 795L407 801L407 803L408 804L409 804L410 802L416 797L417 795ZM270 792L269 791L268 792L268 797L264 805L260 809L258 810L254 810L252 814L248 814L242 809L243 812L246 815L255 815L258 813L261 813L265 809L268 804L268 802L269 801L269 794ZM293 789L293 791L292 792L291 803L293 802ZM227 788L219 793L213 793L209 791L207 789L207 792L210 794L213 794L214 795L219 795L224 791L225 791L227 789ZM179 788L179 797L180 798L180 800L182 799L185 800L187 798L189 797L192 797L193 796L196 796L199 798L199 795L202 793L203 793L205 795L205 793L200 788L199 788L199 789L197 791L183 795L179 791ZM110 793L111 794L113 792L117 792L118 793L120 793L122 791L122 789L121 789L121 791L119 792L118 791L118 788L113 788L110 790ZM259 785L256 788L249 791L247 791L246 790L242 790L238 786L238 788L242 792L244 792L245 793L250 793L256 790ZM151 785L151 804L152 805L152 811L153 812L153 815L154 816L155 821L158 827L169 835L173 835L174 834L179 833L185 825L187 826L186 826L185 824L184 824L184 825L177 831L175 832L172 832L171 831L167 831L158 823L158 821L154 813L154 810L152 807ZM339 786L339 788L340 789L342 789L347 785L359 784L363 788L364 791L371 798L371 799L373 798L373 795L372 794L373 793L373 791L372 789L363 782L348 782L342 786ZM425 775L424 775L424 784L422 786L420 786L420 787L422 789L424 788L424 786L425 785ZM57 775L58 776L59 775L61 775L63 777L65 777L65 774L64 773L60 773ZM39 775L45 775L48 778L49 784L50 785L50 789L52 793L54 794L55 793L55 791L54 791L51 788L51 785L50 784L50 781L49 780L49 776L47 773L42 773ZM175 770L174 771L174 775L172 777L170 778L166 778L168 779L170 781L170 782L168 784L165 785L165 793L166 794L166 797L168 801L169 807L171 810L173 809L173 807L170 802L170 800L168 796L168 793L167 792L167 785L169 783L171 783L172 781L174 781L177 783L179 782L180 779L177 776ZM175 776L177 778L177 779L173 781L172 780ZM423 767L423 769L424 770L426 769L430 769L431 768L431 766L424 766ZM405 768L406 769L410 769L413 767L412 766L406 766ZM217 762L217 763L219 763L223 761L227 761L232 764L229 760L220 760L218 762ZM196 751L196 753L199 755L201 755L203 753L203 752L202 753L200 753ZM121 746L121 749L122 750L122 759L123 760L123 762L124 762L123 749L122 748L122 746ZM379 743L378 743L371 750L370 754L371 754L371 753L379 745ZM123 738L122 740L124 739L127 739L130 742L131 744L131 748L132 749L132 751L133 751L133 745L132 744L132 741L130 738ZM295 737L295 766L294 767L294 779L293 780L293 785L295 784L294 773L296 772L296 767L295 766ZM405 735L404 735L404 740L405 741L404 743L404 747L399 753L399 756L400 757L402 757L403 756L403 754L405 750L405 747L406 746L406 738L405 737ZM148 732L148 733L150 735L152 735L153 736L155 736L158 734L152 735ZM119 731L120 731L123 735L125 735L127 733L123 733L121 731ZM187 727L187 728L190 729L195 735L196 735L200 739L201 739L200 736L198 734L196 734L189 727ZM203 724L203 725L205 725L212 729L214 729L217 731L220 731L221 732L228 730L228 729L226 729L225 730L219 730L216 728L210 727L206 724ZM133 724L133 725L135 724L140 724L145 727L145 725L141 723L134 723ZM60 723L60 726L62 728L62 729L63 729L63 727L61 723ZM285 722L285 724L283 725L283 728L284 730L273 743L263 744L262 743L258 742L255 739L256 740L256 742L259 745L261 745L265 747L267 747L270 745L274 745L279 739L281 740L284 735ZM40 723L40 725L42 729L44 731L54 731L55 730L55 729L45 729L42 726L42 723L41 722ZM161 719L161 728L163 728L163 722L161 721ZM263 719L263 721L265 719L273 719L275 720L275 719L272 717L265 717ZM106 710L106 715L107 716L107 719L108 721L110 723L111 726L115 726L116 724L113 723L109 719L108 717L108 712L107 710ZM396 717L394 716L394 714L395 713L394 712L385 708L377 708L376 707L373 707L372 708L366 708L365 709L360 710L357 713L356 713L353 716L348 719L345 722L345 723L343 725L342 725L342 726L344 726L352 718L353 718L360 712L362 711L365 711L366 710L369 710L370 709L383 709L384 710L388 710L390 712L388 714L392 719L392 717L393 716ZM56 707L51 707L50 708L27 708L26 709L27 710L28 709L40 709L41 710L45 710L46 709L54 709L56 708ZM279 701L274 704L272 703L272 704L274 705L278 703ZM121 710L123 708L127 706L129 706L131 709L133 709L134 710L143 710L144 709L146 709L147 711L150 710L151 712L152 712L152 711L154 710L155 708L148 708L147 707L137 707L133 704L134 701L133 702L130 702L130 703L128 705L124 706ZM42 689L42 692L44 694L45 694L46 692L43 689ZM208 684L208 685L217 685L218 686L223 686L223 685L217 685L216 684ZM267 683L265 685L257 685L256 686L234 686L234 687L255 687L256 686L266 686L267 685ZM197 683L195 683L194 685L195 689L196 689L195 685L197 684ZM305 680L304 679L301 679L297 683L297 685L294 688L290 688L284 693L281 691L281 689L278 687L271 687L269 686L265 690L266 691L269 691L270 690L275 689L279 692L282 692L283 693L282 694L283 694L285 696L286 696L289 693L293 695L294 694L292 694L291 693L291 691L297 688L297 685L299 683L303 684L303 682L305 681ZM138 673L146 677L149 677L150 676L147 676L146 675L141 674L140 672ZM127 672L125 673L121 672L119 673L118 675L119 675L122 678L122 679L121 676L123 674L127 673ZM268 667L269 671L271 673L272 671L270 669L269 669ZM28 661L28 662L52 662L52 661ZM209 655L209 657L215 657L216 659L221 658L222 660L224 659L228 659L229 660L231 660L232 659L246 659L248 661L251 661L258 664L260 664L262 662L266 662L269 664L269 662L267 662L266 661L260 661L257 659L251 659L250 658L237 658L236 657L228 657L227 658L224 658L223 657L219 657L218 656L210 656ZM123 645L123 647L124 648L126 646L127 646L129 648L138 648L138 647L131 647L129 645L126 645L125 644ZM40 641L41 643L51 643L51 642L42 642ZM406 639L406 643L407 644L407 651L405 654L405 657L404 658L404 663L405 664L407 660L407 655L408 654L408 644L407 643L407 640ZM383 618L377 618L373 621L370 621L364 624L358 629L359 629L362 626L364 626L366 624L370 622L373 622L377 619L381 619L383 621L382 622L384 622L383 621ZM48 615L50 617L53 624L54 623L56 624L56 623L55 623L51 619L50 615ZM251 586L251 592L252 593L252 597L253 598L254 596L253 595L253 591L251 589ZM243 542L242 546L243 547L244 552L244 545L243 544ZM168 531L166 531L165 535L166 535L168 533ZM334 530L334 534L336 537L336 540L337 541L338 551L340 554L342 554L344 552L344 551L343 552L339 547L338 541L337 540L337 537L336 536L336 533ZM100 520L100 523L101 524L103 524L103 522L104 521L103 520L101 521ZM108 510L107 510L105 513L105 515L106 516L108 512ZM321 504L323 507L323 511L326 514L327 517L329 519L329 521L333 528L333 524L332 523L332 521L329 518L328 512L326 510L325 507L322 504ZM155 480L155 481L161 481L162 482L164 482L163 481L164 480ZM259 475L259 477L260 478L260 487L261 487L262 485L262 479L261 478L261 476ZM376 464L375 464L374 467L372 469L374 469L375 468ZM381 454L380 456L378 457L380 458L382 460L382 461L382 455ZM329 446L330 448L338 448L339 449L341 449L341 447L333 447L332 446ZM132 438L131 438L128 441L128 442L131 442ZM280 433L279 433L279 437L278 438L278 440L280 440L279 439L280 437ZM141 420L141 428L142 428L142 420ZM357 415L356 415L355 420L357 419ZM304 406L302 407L302 410L301 411L301 415L302 417L303 415L303 410L304 409ZM306 389L304 392L305 394L305 397L303 401L304 403L305 401L305 394L306 393ZM307 379L306 379L306 382L305 383L305 385L306 386L307 385ZM201 378L200 393L199 394L199 403L200 401L200 395L201 394ZM230 373L230 381L231 382L231 387L232 388L232 391L233 392L234 407L236 410L235 414L237 417L236 418L238 422L237 425L239 429L240 435L239 424L238 423L237 413L236 412L236 404L235 403L235 398L234 397L234 391L233 390L233 385L232 384L232 381L231 380L231 375ZM238 369L238 375L239 377L241 378L241 379L243 379L244 377L242 378L240 376L240 374L238 373ZM308 367L307 367L307 370L306 371L307 375L308 373ZM362 364L361 364L361 369L360 370L360 381L361 381L361 368L362 367ZM253 351L253 355L254 356L254 367L255 368L255 380L256 382L258 382L255 379L255 355ZM354 348L352 349L351 357L348 362L348 365L346 367L345 373L343 376L344 378L345 377L345 373L348 368L348 365L350 363L350 359L352 356ZM363 340L363 348L364 348L364 340ZM279 333L278 333L278 342L279 341ZM355 328L354 343L355 342L355 337L356 336L356 329ZM338 270L338 271L344 272L346 274L346 272L344 272L342 270ZM323 268L322 269L320 276L321 276L326 270ZM301 254L298 258L298 265L297 266L297 268L295 270L295 277L294 278L294 282L296 282L296 278L297 277L296 276L296 274L298 270L298 264L300 262L300 259L302 256ZM199 247L198 249L198 252L197 253L198 259L199 260L198 258L198 256L199 255L199 252L198 251ZM357 242L357 243L359 243L362 247L364 247L363 246L363 244L361 242ZM314 239L313 242L311 244L311 249L310 250L310 254L313 261L314 261L314 258L312 256L311 252L312 251L312 246L314 245L314 243L315 242ZM358 212L358 234L359 235L359 237L360 234L359 233L359 212ZM94 205L89 208L88 211L85 213L85 216L82 220L82 222L81 223L81 227L80 228L80 238L81 239L82 238L81 236L81 232L82 231L82 224L83 223L83 220L86 216L87 213L92 208L94 208L95 209L97 208L97 207ZM306 202L306 208L305 209L305 212L306 213L306 217L307 217L307 207L306 206ZM315 195L312 195L311 196L312 196L313 198L312 199L310 199L310 200L313 200L314 199ZM190 194L190 218L189 219L190 221L190 258L190 251L191 250L191 239L190 238L190 221L191 220L190 218ZM424 189L425 194L428 197L429 197L429 196L425 192L425 189ZM283 182L282 182L280 184L278 184L279 185L281 185L283 184ZM420 177L420 178L424 180L423 185L425 185L424 183L424 179L422 177ZM311 168L310 170L312 172L316 180L316 182L317 183L317 187L318 188L318 191L319 192L319 196L318 197L318 199L319 200L319 210L320 211L321 210L320 200L322 197L321 195L320 196L319 195L319 188L318 187L317 179L315 177L315 175ZM293 166L292 167L292 170L297 176L298 179L297 177L298 174L294 170ZM366 164L366 165L364 166L364 167L362 169L367 169L369 170L372 174L373 174L373 172L370 167L370 165L369 164ZM221 165L226 165L229 169L232 169L233 168L232 167L233 166L234 166L235 168L236 168L235 166L233 166L231 164L222 164ZM65 161L59 165L59 167L61 165L62 165L65 162ZM421 160L421 162L424 162L426 164L427 164L425 160ZM410 159L410 161L416 164L416 162L414 160ZM2 148L1 148L1 170L0 171L0 178L1 179L0 181L0 186L1 187L1 193L0 194L0 207L1 208L1 211L0 212L0 232L1 233L1 242L0 243L0 249L1 248L1 243L2 242ZM301 150L307 147L313 147L314 148L316 148L326 158L326 160L329 166L329 169L330 171L331 171L330 165L329 164L329 161L327 159L323 150L319 146L318 146L316 144L310 143L309 145L306 145ZM298 143L296 141L295 142L292 142L289 144L285 144L283 145L282 147L278 147L277 149L282 149L283 148L286 148L294 143L296 143L297 144L298 144ZM272 148L271 147L271 144L269 142L269 141L267 141L267 142L264 144L260 144L256 146L250 146L249 147L247 146L246 147L243 147L242 148L241 147L239 148L236 148L233 150L224 150L223 151L219 151L218 152L215 152L214 151L209 151L209 152L210 153L217 153L218 152L223 152L226 150L228 151L234 151L237 149L251 148L253 146L254 147L256 147L257 146L260 146L261 145L267 145L268 146L268 149L272 149ZM214 142L218 139L222 139L222 138L221 137L216 137L214 139ZM1 135L1 146L2 146L2 135ZM236 134L235 133L233 133L232 134L232 136L230 137L230 138L234 136L236 136ZM296 131L294 129L292 129L291 130L286 131L284 133L275 133L273 135L273 136L275 134L283 134L285 132L293 130L296 133L296 137ZM126 128L121 128L120 130L117 130L115 131L111 135L110 138L108 140L106 148L107 148L107 146L109 144L110 140L116 135L121 135L122 134L121 132L119 131L121 129L126 129ZM270 129L266 124L267 122L264 122L263 124L259 124L258 125L250 125L249 126L247 126L246 124L246 125L243 127L234 127L230 129L228 128L223 128L222 127L217 131L216 131L215 129L211 129L210 130L205 131L205 133L203 135L203 136L204 136L207 133L209 133L210 132L220 132L223 130L230 130L231 129L235 129L236 128L246 128L247 129L247 131L245 132L244 135L245 134L247 134L248 135L246 133L247 131L250 131L252 133L253 132L253 130L250 130L249 129L250 127L254 127L258 131L257 133L259 131L264 131L265 133L265 130L264 131L263 130L263 128L264 127L265 127L267 129L267 130L268 129L270 130ZM407 113L407 116L412 119L420 120L426 117L426 116L424 116L423 117L416 117L415 116L411 115L408 112ZM221 106L221 108L224 111L224 109L225 108L229 108L229 107ZM207 106L206 106L205 108L194 119L194 120L191 123L190 127L189 128L194 122L194 121L204 111ZM72 105L71 105L71 106L67 109L56 109L52 107L52 108L54 110L58 111L59 112L65 112L66 111L69 111L72 109ZM413 100L413 103L414 104L420 104L421 105L423 104L423 101L422 100L420 101L416 101L414 99ZM57 94L57 95L59 97L64 97L65 98L67 97L67 94L65 94L64 95L62 95L61 94L60 95L59 94ZM189 85L186 85L181 90L180 93L181 93L181 92ZM400 81L400 85L403 87L407 87L408 88L412 87L417 84L417 82L416 81L415 81L415 83L414 84L406 84ZM394 81L394 94L395 94L395 81ZM219 89L219 91L220 91L221 88L226 83L232 83L237 87L237 88L241 92L241 93L240 88L234 82L232 82L231 81L226 81L224 82L221 85ZM38 80L38 102L39 102L39 80ZM176 77L173 77L167 80L163 84L159 91L159 93L157 97L157 100L156 101L156 108L155 109L155 113L157 115L157 118L157 114L158 113L157 102L158 101L158 98L159 97L160 92L167 84L169 85L172 85L173 84L173 79L174 78L176 78ZM60 80L60 76L59 75L58 75L58 77L57 78L55 78L54 79L45 77L45 78L49 81L59 81ZM437 67L434 67L433 66L417 66L416 67L405 67L404 68L397 69L394 71L394 73L397 73L400 71L406 70L407 69L434 69L437 72L437 78L435 80L434 80L435 82L433 84L427 84L423 81L421 81L421 84L424 87L431 87L435 84L437 86L437 123L435 126L434 125L430 125L429 124L424 124L423 125L417 125L416 124L405 124L404 125L400 125L398 126L396 122L396 119L395 119L395 124L397 126L396 128L397 129L399 129L402 127L405 127L406 126L424 126L425 127L431 127L432 128L434 128L435 127L437 128L438 127L438 68ZM204 87L204 88L206 87L207 83L212 78L212 77L218 72L220 72L224 70L233 70L235 69L236 70L241 71L250 80L253 87L253 92L254 93L254 97L252 100L253 101L254 101L257 98L261 96L263 96L265 94L280 94L286 97L292 103L293 102L292 98L287 93L283 92L278 89L269 89L268 90L266 90L261 93L256 94L256 96L255 97L254 96L254 86L252 83L250 74L244 69L241 68L238 65L236 65L235 64L231 64L227 66L223 66L219 68L217 70L212 72L210 74ZM42 62L40 64L40 67L39 69L40 69L40 67L42 65L44 64L48 64L49 63L65 63L66 64L73 64L74 65L78 65L80 66L82 68L82 75L76 80L68 80L67 79L66 79L66 80L68 82L70 82L71 83L78 83L80 82L82 84L82 92L81 93L81 100L80 101L80 114L79 115L79 117L77 119L75 118L63 117L62 116L50 116L49 117L46 117L45 118L41 118L39 116L39 109L38 109L38 118L39 119L39 121L45 120L46 119L51 119L52 118L64 118L65 119L74 120L75 121L79 122L81 120L81 102L82 101L82 93L83 92L83 67L81 66L79 63L68 62L67 61L46 61L45 62Z"/>
</g>
<rect x="1" y="1" width="598" height="958" rx="28" fill="none" stroke="#d6d6d0" stroke-width="2"/>
</svg>
