<?xml version="1.0"?>
<svg xmlns="http://www.w3.org/2000/svg" width="600" height="960" viewBox="0 0 600 960" role="img">
<title>WhatsApp Image 2026-07-25 at 11.42.53 (5).jpeg</title>
<defs>
<clipPath id="card"><rect width="600" height="960" rx="28" ry="28"></rect></clipPath>
</defs>
<rect width="600" height="960" rx="28" fill="#f7f7f3"></rect>
<g clip-path="url(#card)">
<path fill="#cf3545" fill-rule="evenodd" d="M522 838L520 840L517 846L517 848L515 850L514 856L513 857L511 865L507 872L507 874L508 875L515 875L517 873L517 870L519 868L520 869L519 877L515 882L515 886L516 887L524 887L526 885L526 884L528 883L529 884L529 890L528 891L530 894L543 894L545 892L545 890L544 889L544 875L543 874L543 869L544 868L546 869L548 885L549 886L554 886L555 885L555 876L553 872L553 867L551 863L551 858L552 857L554 859L556 863L557 873L559 875L562 875L563 874L563 869L562 868L562 866L560 863L558 863L556 860L556 858L557 857L559 857L559 854L558 853L558 850L557 849L556 843L554 841L553 841L551 843L551 845L552 846L552 853L550 854L549 853L548 848L546 845L544 846L544 848L543 849L542 849L539 845L538 845L537 847L535 849L534 849L533 848L533 844L532 843L529 843L524 838ZM528 874L530 873L531 875L529 876ZM525 868L526 869L526 873L524 874L523 873L523 870ZM538 862L540 864L540 866L541 867L541 873L540 874L540 890L538 892L534 892L532 890L533 875L534 874L534 871L535 870L535 866ZM523 857L524 858L524 860L522 863L522 866L520 867L519 866L519 863L521 860L521 858ZM529 856L530 857L530 859L529 860L528 865L526 866L525 865L525 862L527 859L527 857ZM522 846L526 850L526 854L524 856L523 856L522 854L521 854L519 858L519 860L517 863L516 869L513 872L511 870L511 869L515 861L517 852L519 848L521 846ZM54 838L52 840L52 843L51 844L51 849L50 850L50 860L49 861L49 863L50 864L52 862L53 856L55 854L56 854L58 856L58 883L56 885L52 885L50 883L50 880L49 879L50 877L50 873L49 872L48 873L48 876L47 877L47 885L48 886L55 886L56 887L60 887L63 885L63 882L62 881L62 873L61 872L61 866L60 865L59 855L58 854L58 845L57 844L57 841L56 839ZM61 837L60 838L60 844L65 848L65 851L63 854L63 858L64 859L64 866L66 870L66 876L68 878L72 878L73 877L73 870L71 866L70 858L68 855L68 853L66 849L65 841L64 839L62 837ZM47 836L46 836L43 840L43 843L41 847L40 855L39 856L39 859L37 863L36 870L35 871L35 873L33 875L33 879L34 880L42 880L43 879L43 876L44 875L44 870L45 869L45 864L46 863L46 858L47 857L47 851L48 850L48 837ZM45 849L46 850L46 855L44 859L44 862L43 863L43 867L42 868L41 875L40 876L38 876L37 874L38 873L38 869L39 868L39 864L40 863L42 852L43 850ZM69 833L67 835L67 838L68 839L68 844L69 845L69 848L72 854L72 858L75 863L75 865L76 866L80 866L81 865L81 858L80 857L79 853L76 850L76 847L74 844L74 840L73 839L73 837L72 835L70 833ZM38 830L36 831L34 836L32 838L31 846L30 847L30 849L28 853L28 857L25 864L25 868L26 869L30 869L32 868L34 864L35 857L34 857L32 864L30 866L29 866L27 864L27 863L29 860L29 857L31 853L31 850L32 849L34 841L36 839L40 839L41 837L41 833ZM434 751L430 755L429 758L427 760L425 760L424 759L417 759L416 760L413 760L412 761L412 766L413 767L413 771L412 773L410 775L408 775L406 777L402 778L388 791L386 795L386 797L384 800L384 805L385 806L385 809L386 811L390 815L393 816L394 815L393 813L393 805L394 803L396 802L396 798L397 796L404 789L411 788L414 791L414 802L415 803L418 814L420 816L420 818L422 820L424 825L437 839L440 840L442 842L454 845L457 842L457 824L455 820L454 814L449 804L447 802L445 797L440 791L440 788L442 786L448 787L455 791L465 799L468 799L469 798L469 796L467 792L456 781L452 780L451 779L448 779L445 776L445 775L447 773L454 773L456 772L458 770L458 769L457 768L454 768L453 767L448 767L447 768L445 768L443 766L443 756L442 754L439 751ZM183 751L178 751L174 755L173 755L171 753L169 748L168 747L166 747L163 750L161 750L157 752L154 752L153 753L145 753L144 754L138 754L137 755L134 755L133 756L130 756L129 757L130 759L137 759L139 761L138 764L131 771L130 771L123 777L122 780L123 781L126 779L128 779L135 776L138 776L142 774L144 774L147 777L145 782L140 788L137 794L135 796L135 798L131 805L131 811L130 812L130 815L129 816L129 819L128 820L128 829L131 833L135 833L143 828L155 815L164 800L164 798L168 791L168 786L169 784L175 778L177 777L182 777L185 779L187 779L195 786L197 790L197 797L196 798L196 801L193 806L194 808L199 806L207 797L208 795L208 785L207 783L198 776L196 776L188 772L185 769L184 767L184 757L185 756L185 753ZM165 615L169 615L170 614L169 613L166 613ZM354 589L355 594L361 594L368 598L370 598L372 594L378 588L378 579L380 575L384 571L390 571L395 575L398 582L406 589L408 595L407 600L404 603L400 604L394 603L392 601L387 601L381 605L374 605L373 607L377 611L384 613L397 613L401 611L404 611L405 612L405 617L408 622L426 640L434 645L443 648L444 644L437 632L424 618L414 610L414 608L417 605L432 617L451 624L465 625L470 623L473 620L473 618L465 612L443 604L435 604L434 603L424 604L422 602L422 599L426 595L434 595L447 587L453 585L458 581L462 580L472 572L478 564L478 562L477 561L469 562L459 565L449 570L440 576L424 591L422 591L420 589L420 584L416 576L411 571L405 567L396 564L394 562L391 562L387 559L380 559L369 570L363 573L363 580ZM230 552L230 555L231 556L232 556L234 558L237 558L237 557L233 553ZM392 534L392 539L391 540L391 543L389 547L385 552L389 551L392 548L392 543L394 542L395 543L395 547L394 548L394 552L393 553L393 555L396 557L399 557L403 560L410 558L413 555L413 552L416 548L415 546L416 544L416 538L414 537L410 537L409 536L402 536L398 534L396 534L395 535L394 534ZM398 503L397 504L397 516L394 518L394 524L396 525L396 526L394 527L394 529L402 529L405 531L418 531L421 527L421 512L420 511L420 507L418 505L406 505L405 504L401 504L400 503ZM214 498L200 498L191 495L189 499L190 519L192 522L201 525L206 525L210 523L212 525L212 528L210 530L193 531L193 547L195 555L199 558L204 558L216 553L217 556L213 560L198 566L191 574L193 580L191 583L188 583L177 576L151 565L143 565L150 573L175 586L185 588L188 592L185 595L161 597L140 602L130 606L125 610L126 612L132 613L152 612L172 608L187 600L190 600L192 603L179 612L165 626L158 639L159 641L170 637L182 628L192 618L204 601L212 601L221 605L231 604L236 600L228 597L211 599L204 592L204 585L210 579L212 571L218 565L222 566L230 576L235 578L240 583L241 593L251 590L251 587L242 576L241 569L226 557L226 551L220 549L215 542L215 526L217 527L217 536L220 541L218 523L216 523L215 521L219 519L222 512L219 513L217 511L217 507L215 504L216 500ZM220 488L219 502L221 504L221 488ZM326 483L322 487L320 491L320 496L322 500L326 504L333 504L342 495L344 491L344 489L342 488L339 491L335 493L331 493L327 490L327 484ZM287 482L285 482L285 489L280 495L274 495L270 491L269 491L269 496L270 497L270 499L275 504L279 506L286 504L289 501L291 497L290 488ZM418 469L414 469L411 471L408 471L407 472L401 472L397 474L395 476L394 478L394 480L396 484L396 487L395 489L397 490L397 498L398 499L402 498L403 499L415 500L418 498L420 498L422 496L423 494L423 490L422 489L422 487L423 486L423 483L422 482L422 476L421 475L420 471ZM301 462L301 463L304 463L305 464L308 464L309 465L312 465L313 466L313 464L312 463ZM193 461L192 462L192 464L191 465L191 469L190 470L190 478L188 482L189 485L192 488L196 489L202 492L216 492L217 491L217 481L219 479L221 479L221 473L220 474L218 472L218 470L214 465L212 465L211 464L202 464L196 461ZM263 453L263 454L266 456L288 456L289 457L305 456L306 457L311 457L312 458L314 458L315 459L319 459L320 460L323 460L324 459L341 459L342 458L347 458L348 457L348 455L345 452L342 452L341 453L336 453L335 454L316 454L315 453L289 453L288 452L280 452L279 451L265 451ZM381 443L379 446L381 448L385 449L385 444L384 443ZM414 435L412 435L402 440L397 440L396 441L393 441L389 443L391 447L392 453L393 454L394 462L395 463L395 465L397 467L400 467L401 466L409 466L415 463L417 463L421 460L421 455L420 454L420 450L418 447L418 442L417 441L416 437ZM234 434L232 434L231 435L231 438L233 437ZM420 429L418 431L418 435L419 436L420 436ZM200 427L198 430L198 433L197 434L196 440L194 444L194 449L193 450L194 453L199 457L201 457L202 458L210 458L211 459L215 459L217 457L217 455L219 453L220 454L220 459L221 459L222 455L224 453L225 450L228 447L228 446L226 446L223 449L222 448L222 446L226 441L226 436L225 435L219 435L218 434L210 433L208 431ZM454 339L448 340L434 351L425 361L419 372L416 375L415 379L412 381L411 377L414 373L418 363L418 359L420 355L420 346L421 345L421 331L420 330L421 325L419 322L419 320L417 320L411 330L407 342L407 349L406 350L405 359L402 367L401 384L399 386L391 385L390 384L378 384L366 390L356 398L342 403L339 406L337 411L343 416L350 416L352 418L352 422L356 427L364 434L366 434L369 436L373 437L390 437L394 435L399 435L411 430L422 421L424 418L426 409L430 406L428 405L427 408L425 409L421 405L421 403L424 400L428 400L431 398L439 396L441 394L455 387L470 371L469 368L459 369L456 371L454 371L449 375L438 381L427 391L424 392L422 390L422 388L435 377L444 364L445 360L455 348L453 343ZM367 408L373 402L375 401L385 400L392 403L396 407L397 412L395 416L390 421L388 422L385 422L384 423L379 423L378 422L375 422L373 421L367 415L367 413L366 412ZM156 329L156 331L161 340L172 355L186 368L192 372L194 372L197 375L199 375L202 378L202 381L194 394L194 396L195 397L195 403L197 407L198 414L203 422L208 426L212 428L218 428L219 429L237 428L246 425L250 422L252 422L254 420L259 418L266 412L268 413L278 413L283 411L285 409L285 405L283 403L281 403L277 399L265 393L261 389L259 383L254 377L244 371L238 370L236 368L235 358L233 352L233 344L229 336L228 330L218 313L216 313L215 315L215 329L218 339L218 343L225 359L223 362L220 360L216 349L203 330L189 315L187 315L187 321L190 327L190 330L201 351L210 364L209 367L207 367L190 349L174 337L166 334L158 329ZM237 389L242 394L242 399L241 400L241 402L234 409L232 409L226 412L221 412L219 411L215 407L215 405L214 404L214 401L215 400L216 395L222 389L224 389L225 388L235 388ZM416 220L416 223L418 224L419 223L419 221L418 220ZM215 221L220 221L221 219L216 219ZM406 206L407 209L409 210L409 208L407 206ZM477 144L476 143L473 143L471 145L468 146L465 149L456 153L456 154L454 155L437 173L430 184L425 189L424 189L424 190L422 192L420 193L414 193L412 192L405 185L403 181L403 173L407 168L407 166L406 165L403 165L400 167L398 167L394 170L394 172L392 174L392 179L395 182L395 184L392 188L392 194L395 197L397 197L398 198L405 198L411 204L412 204L415 207L415 210L412 213L412 214L413 215L420 214L422 216L422 219L424 222L430 222L435 226L439 225L441 227L445 227L446 226L445 225L447 223L456 225L457 224L461 224L462 223L465 223L467 222L470 219L471 219L475 214L477 210L477 206L475 206L470 211L463 214L453 214L446 208L446 206L447 204L458 194L458 193L462 188L464 183L467 180L467 178L469 176L472 170L472 167L474 165L477 159L477 153L478 152L477 150ZM562 133L563 136L565 138L565 140L566 140L566 135L564 135ZM178 121L175 124L175 136L176 137L176 142L177 143L178 148L180 151L180 154L183 160L186 163L190 170L201 182L201 185L194 191L189 191L188 192L186 192L185 191L181 191L178 188L177 188L172 182L171 183L171 187L175 195L179 200L189 205L201 205L202 204L206 204L207 205L207 215L209 217L211 217L214 214L214 211L216 209L217 209L221 213L223 213L225 209L227 209L230 212L233 212L234 211L234 204L232 201L232 197L236 194L240 194L242 193L245 190L242 184L242 182L244 180L248 180L251 177L251 171L249 168L249 166L248 165L246 165L242 170L242 172L235 179L231 181L229 181L226 183L215 183L213 181L213 169L212 168L212 165L209 160L209 158L207 155L207 152L204 146L202 144L198 137L195 134L195 133L188 126L184 124L181 121ZM36 78L36 82L37 83L37 86L39 90L39 93L41 96L43 107L46 111L48 111L49 110L49 107L48 106L48 101L46 97L46 90L45 89L45 86L44 85L43 80L41 78ZM40 83L41 83L43 85L43 88L44 89L44 93L43 94L41 93L41 91L39 87L39 84ZM91 76L87 76L85 78L85 82L83 85L83 89L85 88L86 89L85 94L86 94L86 92L89 88L89 86L91 84L91 82L92 81L92 77ZM87 81L88 82L88 84L86 85L85 83ZM543 71L539 74L539 79L540 80L540 92L541 93L539 94L536 91L536 85L535 84L535 81L534 80L531 80L529 82L529 91L528 92L522 92L521 93L522 94L522 97L524 100L525 100L525 97L526 96L529 100L529 105L527 107L527 109L529 113L530 123L531 125L533 125L534 124L534 122L537 119L539 121L541 121L541 118L542 117L543 117L547 122L549 119L550 114L552 113L553 114L553 122L554 123L556 123L557 122L557 120L559 119L560 120L559 125L561 127L564 128L567 124L568 118L571 112L571 105L574 101L574 97L575 96L576 91L575 90L570 90L567 93L564 104L562 105L561 103L563 99L563 96L565 92L565 89L566 88L566 85L567 84L567 81L568 79L566 77L564 77L563 76L561 78L560 78L557 81L557 87L555 88L554 87L554 82L555 81L554 77L555 76L555 73L554 72L545 72ZM558 96L560 95L561 97L559 98ZM571 93L573 95L573 98L572 99L572 101L569 108L568 114L565 118L563 116L565 111L565 108L567 105L568 97ZM555 90L556 91L556 95L554 97L553 97L552 96L552 92L554 90ZM563 83L564 84L563 90L562 91L562 93L560 94L559 93L559 88L560 87L560 84L561 83ZM546 75L550 75L552 77L552 79L551 80L551 85L550 86L550 103L548 106L546 106L544 104L544 100L543 99L543 92L544 91L543 78ZM46 66L45 67L45 69L46 70L47 69L50 72L50 74L52 75L52 70L51 68L49 66ZM56 57L55 58L55 64L56 65L56 74L57 75L58 88L57 89L55 88L55 85L53 82L53 79L50 79L48 77L48 74L46 72L45 73L45 76L46 77L46 80L47 81L47 85L49 89L49 93L51 96L52 104L55 108L56 107L56 105L58 103L59 103L61 105L61 106L63 107L65 104L65 101L67 100L68 101L68 106L70 109L74 108L75 109L75 112L79 114L82 110L82 106L80 107L74 102L74 100L76 97L76 93L78 90L83 72L86 69L83 65L76 65L75 66L75 71L74 72L74 74L73 75L73 79L71 83L71 88L69 89L68 88L68 81L69 80L70 72L71 71L71 59L68 57ZM68 90L70 91L70 94L69 95L67 94L67 91ZM51 87L52 87L54 90L54 93L55 94L54 96L52 95L52 93L50 90L50 88ZM79 70L80 71L80 76L78 79L78 83L76 87L76 91L75 93L73 94L72 93L72 88L73 87L73 84L75 80L76 73L77 71ZM65 60L69 64L69 66L68 67L67 78L66 79L66 90L65 91L65 93L64 94L62 94L60 92L60 90L59 89L59 75L60 74L59 72L59 63L61 61ZM317 4L315 4L312 8L308 5L307 6L308 9L306 11L305 11L305 12L309 16L311 14L316 14L318 12L317 10L317 7L318 5Z"></path>
<path fill="#e5c51c" fill-rule="evenodd" d="M558 915L557 916L559 919L560 923L561 923L561 918L560 916ZM517 912L511 912L509 914L509 920L508 921L508 923L509 924L510 924L513 921L515 916L517 914ZM36 907L30 907L28 910L28 919L29 919L33 915ZM77 906L80 912L81 912L81 908L79 906ZM557 820L556 822L558 824L559 824L559 821ZM522 819L522 826L523 827L523 829L524 831L530 836L531 835L526 829L526 823L528 821L530 821L538 827L544 827L545 826L548 826L548 824L539 824L538 823L536 823L527 815L525 815ZM49 815L49 816L51 818L54 818L55 819L59 819L63 817L63 816L61 816L60 817L54 817L53 816ZM38 807L36 809L36 818L37 819L37 821L42 826L43 825L40 822L39 816L42 813L44 813L44 812L40 807ZM312 685L306 682L304 685L304 688L302 690L298 691L294 688L293 685L291 683L287 684L284 687L282 694L279 699L279 710L281 712L283 712L284 713L292 713L293 712L293 704L296 700L299 700L301 702L302 708L303 709L303 712L304 713L308 713L311 711L314 711L316 710L318 707L318 705L317 704L317 701L314 696ZM305 648L302 653L302 657L301 658L302 661L304 663L305 673L307 675L310 676L312 678L316 680L320 678L322 678L325 675L325 671L324 670L323 659L321 656L321 653L320 652L313 652L309 649ZM293 646L285 647L279 650L274 656L274 660L273 661L273 672L275 676L279 679L284 679L285 678L288 678L292 675L292 670L293 669L293 666L296 659L296 652ZM324 615L320 615L318 617L316 621L316 623L307 639L307 642L308 643L310 643L312 645L314 645L315 646L326 645L332 642L332 637L331 636L331 632L330 631L330 627L329 626L329 619ZM279 615L270 620L268 620L266 622L266 639L273 644L279 644L285 641L289 641L291 639L291 636L290 635L289 630L286 624L284 622L283 619ZM328 587L327 588L327 591L328 592L328 598L327 599L327 603L326 604L325 609L332 613L343 614L345 612L345 609L341 601L341 599L339 596L339 594L338 593L338 588L337 587ZM277 584L275 584L274 583L266 583L264 585L264 588L259 598L259 600L256 605L256 611L258 613L261 613L265 615L266 614L272 613L277 609L277 606L274 602L274 594L278 586ZM263 576L264 577L274 577L277 579L281 579L282 578L284 578L286 580L286 583L280 590L278 594L278 601L279 603L286 609L290 611L295 611L296 612L301 612L302 613L305 613L306 612L313 612L317 610L321 606L322 602L324 599L324 590L320 585L320 583L323 580L332 580L333 581L339 581L340 580L340 575L343 572L347 572L348 571L351 571L352 570L355 570L356 569L360 569L364 567L366 565L369 564L372 561L372 560L370 558L362 554L359 556L353 556L348 559L345 559L338 564L335 564L334 563L317 564L316 563L313 563L311 561L310 559L310 555L309 554L299 554L295 557L295 562L293 564L291 564L290 565L274 565L271 563L268 563L266 565L266 568L263 572ZM306 573L313 580L314 586L316 590L316 595L313 601L310 604L308 604L302 607L299 607L298 606L296 606L291 601L291 592L292 591L292 589L295 583L297 576L299 574L301 574L302 573ZM231 551L233 552L240 560L241 560L245 564L251 567L253 567L257 569L260 569L263 565L263 562L264 561L264 558L263 557L260 557L259 556L252 556L242 549L237 549L236 550L232 550ZM393 517L392 517L390 519L376 519L375 518L371 518L365 522L365 545L366 546L366 549L372 553L382 553L386 550L390 543L390 540L391 539ZM224 512L222 514L219 520L219 525L220 526L220 531L221 532L221 540L225 544L237 544L238 543L243 542L246 539L246 530L245 529L245 516L243 513L238 513L237 512ZM369 483L367 485L367 496L368 497L368 507L369 509L372 512L374 512L375 513L391 513L393 514L394 507L393 506L393 487L392 485L388 481L385 481L384 482L371 482ZM374 488L384 487L390 492L392 500L391 501L391 503L386 510L376 510L373 507L373 504L372 503L372 490ZM223 475L222 476L222 504L224 506L228 506L228 505L225 502L225 484L228 481L240 481L244 486L244 488L245 489L245 496L244 497L244 501L243 503L241 505L239 505L239 506L246 506L248 504L248 479L246 476L238 476L237 475ZM299 463L298 464L298 466L300 470L301 476L305 478L309 477L311 475L313 471L313 467L312 466L309 466L308 465L305 465L304 464L301 464ZM354 456L355 460L360 470L363 473L368 473L375 476L377 476L378 475L386 475L387 474L391 474L392 473L392 469L391 468L391 464L389 460L388 452L386 450L383 450L380 448L377 448L373 451L371 451L368 453L360 454L359 455L355 455ZM221 460L221 464L223 466L227 467L228 468L233 468L234 469L246 469L247 468L251 468L253 466L255 462L255 460L257 457L257 453L258 451L257 450L255 450L254 451L238 450L235 448L229 447L226 450ZM343 433L343 436L345 438L346 444L350 449L359 449L360 448L366 448L373 445L373 443L369 443L360 438L352 430L350 429L347 430ZM346 423L339 420L332 413L332 410L327 406L324 400L324 397L323 396L323 391L322 390L322 387L321 386L320 386L317 383L304 383L297 386L297 393L296 394L296 397L294 399L290 407L290 410L289 412L284 417L282 418L278 418L277 419L270 419L269 420L265 420L261 423L261 425L263 426L266 430L266 431L264 433L261 433L256 428L255 428L250 431L246 431L245 432L239 433L235 435L232 440L237 443L240 443L241 444L246 444L247 445L257 444L258 445L262 445L264 441L264 437L266 433L270 429L278 424L280 424L287 421L290 418L293 418L294 419L304 419L305 420L310 420L311 421L322 421L323 422L327 422L334 425L338 429L341 429L343 428L346 425ZM272 389L275 392L278 393L280 395L284 397L286 399L286 400L288 401L291 398L294 392L294 383L293 382L285 382L281 384L278 384ZM338 380L330 381L328 383L327 383L325 386L325 391L327 394L327 396L329 400L333 404L334 404L340 398L346 395L346 394L339 384L339 381ZM325 366L325 372L327 374L334 374L336 372L336 370L332 365L326 365ZM278 372L278 374L280 375L290 375L291 374L295 374L296 373L296 368L294 365L285 365ZM302 342L300 340L296 340L295 341L288 341L286 342L282 349L282 354L284 356L286 356L287 357L295 357L296 356L298 356L300 354L300 349L302 345ZM320 338L318 340L317 344L316 345L317 347L317 350L319 354L322 357L330 357L331 358L334 358L337 356L337 352L335 349L335 346L333 342L329 339L326 339L325 338ZM326 309L323 312L321 316L321 318L320 319L320 326L326 331L335 333L338 330L340 326L341 313L339 311L332 311L331 310L328 310ZM288 308L285 312L285 324L286 325L287 332L290 334L296 334L297 333L302 333L304 334L306 331L306 318L305 317L304 313L298 307L290 307ZM299 273L298 277L297 278L297 283L298 284L300 295L306 299L310 299L314 296L317 296L318 297L320 297L322 299L327 299L329 297L333 297L334 296L334 273L331 270L323 270L320 276L317 279L315 279L313 277L312 273L309 270L303 270ZM305 251L305 256L308 260L311 260L312 255L318 250L319 250L322 254L322 258L323 259L323 261L325 262L327 260L327 251L323 248L312 246L311 247L309 247ZM528 143L528 146L529 147L531 147L531 145L529 143ZM560 133L559 135L561 138L561 143L559 145L558 145L558 148L561 151L563 151L565 147L565 141L562 135ZM43 129L42 130L42 133L44 134L45 133L45 131ZM79 136L79 125L78 124L78 122L75 120L74 120L76 125L76 129L73 132L70 131L63 126L56 126L54 127L54 128L56 127L65 128L67 130L70 131L76 137L78 137ZM573 39L568 44L567 46L567 49L566 50L566 53L571 53L572 52L573 42L574 41ZM37 30L38 32L38 36L39 37L41 37L41 35L39 31ZM90 28L89 28L87 30L85 34L85 37L84 38L86 40L89 40L91 37L91 29Z"></path>
<path fill="#17181d" fill-rule="evenodd" d="M0 954L0 959L4 959L4 958ZM506 909L506 912L507 913L507 920L503 928L503 931L506 931L508 930L511 927L512 927L513 925L519 919L529 919L531 921L530 923L531 928L535 931L541 930L543 928L544 926L544 922L546 920L552 920L562 931L564 932L566 932L567 931L567 929L564 923L564 913L561 910L530 910L529 909L518 909L517 908L507 908ZM558 914L559 914L563 919L563 921L561 924L559 923L559 922L555 917L555 916ZM507 923L507 921L508 920L508 913L511 910L513 911L517 911L518 912L520 911L525 911L526 912L525 914L519 914L515 922L511 926L509 926ZM22 925L23 926L28 925L36 917L36 916L41 912L49 912L51 914L51 920L54 923L61 923L64 921L64 914L66 912L73 912L82 921L83 921L85 923L88 923L89 921L87 919L84 912L84 903L83 902L59 902L58 903L49 903L48 902L34 902L33 901L29 901L25 903L25 907L27 909L28 906L30 904L34 904L36 905L38 907L38 908L36 910L35 914L29 920L28 920L27 918L25 917L22 923ZM77 905L79 905L82 908L82 913L80 915L78 913L77 910L74 907ZM354 887L351 887L343 895L345 896L350 891L351 891L354 894L354 902L353 903L352 915L350 917L347 917L343 919L340 922L341 924L346 924L348 923L350 925L350 928L349 929L349 932L348 933L348 935L349 936L352 935L360 927L360 922L359 920L364 916L364 914L360 914L358 912L358 892ZM309 884L308 886L311 890L311 905L310 906L310 909L313 913L321 913L323 912L328 907L328 906L326 904L324 904L323 906L320 909L319 909L317 907L317 904L329 894L330 892L330 888L325 884L322 884L319 886L314 886L312 884ZM322 891L324 893L324 894L320 898L317 898L316 897L316 895L320 891ZM286 882L279 883L272 890L270 894L270 907L274 911L278 913L283 913L289 907L293 899L293 890L292 888ZM278 889L283 889L289 895L289 903L286 907L280 907L277 904L277 902L276 901L276 891ZM252 881L248 881L244 884L245 886L247 885L250 885L252 887L252 900L251 901L251 910L247 914L242 915L240 917L241 919L245 919L247 918L249 920L249 924L247 928L248 930L250 930L254 926L254 925L258 920L258 914L263 910L263 908L259 908L256 905L256 885ZM227 879L223 880L219 885L219 887L220 888L224 884L226 884L228 886L228 902L227 903L227 907L226 908L225 922L224 923L224 926L223 927L223 932L222 933L222 936L221 937L222 939L225 938L227 936L227 935L233 930L233 926L232 925L232 907L231 906L231 900L232 899L232 887L231 886L230 882ZM538 863L536 866L536 870L535 871L535 874L534 875L534 883L533 884L533 890L534 891L538 891L539 890L539 874L540 873L540 867ZM523 858L522 858L522 860L520 863L520 866L521 866L521 863L523 860ZM529 857L528 857L528 859L526 862L526 865L527 865ZM513 853L512 854L510 862L508 865L508 867L506 870L506 872L504 875L504 877L505 878L512 878L514 880L514 881L515 881L518 877L519 869L518 870L518 873L515 876L508 876L506 874L506 872L510 865L510 863L513 856ZM522 847L520 848L518 852L516 861L512 869L513 871L515 869L515 866L520 854L521 853L522 853L523 855L525 854L525 850ZM545 790L542 790L535 793L530 799L527 806L521 813L519 817L520 836L515 845L514 849L516 848L516 846L519 840L522 837L524 837L529 842L532 842L534 844L534 848L535 848L538 844L543 848L543 846L546 844L549 848L550 853L551 853L551 846L550 843L554 840L557 843L559 853L560 854L560 857L557 858L557 860L558 862L560 862L562 864L564 869L564 874L562 876L559 876L556 873L555 863L552 858L552 863L554 867L554 872L556 876L556 885L554 887L549 887L547 885L546 874L545 873L545 869L544 869L544 874L545 875L545 889L546 892L543 895L530 895L527 891L528 890L528 884L527 884L524 888L516 888L513 886L513 889L514 890L522 890L526 894L526 896L528 898L545 898L548 895L548 893L550 891L558 890L559 889L559 880L561 878L566 878L567 877L566 871L564 868L563 858L560 853L560 849L559 848L559 844L557 838L563 826L563 817L560 811L561 808L560 806L560 802L552 793ZM542 838L544 836L547 836L548 837L546 839L543 839ZM551 821L553 819L557 817L559 817L560 818L560 824L559 825ZM520 825L520 821L522 818L522 815L525 811L526 811L529 814L530 817L536 822L538 822L539 823L541 822L543 823L547 823L551 821L552 822L551 825L548 828L544 830L540 830L539 829L537 829L532 824L529 824L528 825L528 829L530 833L536 838L535 839L529 838L524 833ZM54 782L48 785L42 791L39 799L35 803L32 809L32 820L34 823L34 829L30 837L29 843L27 847L27 850L25 854L25 857L22 863L20 871L22 873L30 873L32 875L32 877L30 881L30 883L31 884L37 884L38 885L41 885L46 891L62 892L66 890L67 888L67 885L69 883L76 883L78 881L77 879L77 872L79 870L84 870L85 869L85 865L83 861L82 861L82 865L80 867L76 867L74 865L74 863L71 858L71 854L68 848L68 845L67 844L67 839L66 838L66 835L69 832L70 832L73 835L74 839L75 840L75 844L77 847L77 850L81 855L81 853L78 848L78 846L76 842L76 839L73 832L73 828L77 822L77 818L78 817L77 807L74 803L74 799L75 798L74 796L74 793L65 784L63 783L59 783L58 782ZM54 837L55 837L58 841L58 844L59 845L59 854L60 855L60 860L61 861L62 872L63 873L63 881L64 882L64 885L60 888L56 888L55 887L48 887L46 885L46 877L47 876L47 873L49 871L51 873L51 877L50 878L51 880L51 883L52 884L56 884L57 883L57 856L56 855L54 856L53 862L50 865L48 863L48 861L49 860L49 850L50 849L50 844L51 843L51 840ZM61 836L62 836L66 841L67 849L68 850L69 855L71 858L72 866L74 870L74 877L72 879L68 879L65 876L65 870L63 866L63 859L62 858L62 854L64 851L64 848L59 844L59 838ZM47 835L49 837L49 850L48 851L48 857L47 858L47 863L46 864L46 869L45 870L45 875L44 876L44 879L42 881L34 881L32 879L32 875L34 873L34 871L35 870L35 867L36 866L36 863L38 859L39 851L40 850L40 847L42 843L42 840L43 838L46 835ZM45 850L44 850L43 852L43 855L42 856L42 859L41 860L41 863L40 864L40 868L39 869L39 873L38 875L40 875L40 872L41 871L41 868L42 867L42 863L43 862L43 859L45 855ZM38 829L42 833L42 837L40 840L36 840L34 843L34 846L32 850L32 853L30 857L30 860L28 863L28 864L30 865L31 864L33 857L35 856L36 857L35 864L34 865L34 867L32 869L30 870L26 870L24 868L24 864L25 863L25 861L27 857L27 853L30 846L31 838L33 836L35 831L37 829ZM63 829L64 827L66 827L67 828L65 830ZM47 816L49 814L54 816L60 816L61 815L63 815L64 817L61 820L51 820ZM72 808L73 808L75 810L75 814L73 816L71 816L69 813L69 811ZM38 804L46 813L45 815L42 815L41 816L41 822L44 824L44 826L43 827L39 826L36 823L34 819L34 811L36 808L36 806ZM175 723L165 723L164 724L164 731L168 737L161 746L152 749L142 749L134 752L130 752L118 758L114 763L115 765L123 764L124 763L129 763L131 765L118 778L114 783L112 788L116 788L119 786L122 786L137 779L139 779L141 781L130 801L129 807L128 808L128 812L127 813L125 831L127 836L130 839L135 838L140 835L152 824L154 820L162 810L174 784L179 782L184 783L188 785L194 792L194 797L192 802L185 809L179 811L181 814L194 813L203 809L206 806L210 799L211 788L207 778L195 770L190 768L187 765L187 762L188 761L188 750L186 748L188 746L191 748L197 748L200 746L200 741L196 736L193 735L189 731ZM183 750L186 753L186 756L185 757L185 767L186 769L188 771L196 775L198 775L200 777L204 779L208 783L209 785L209 795L208 797L199 807L194 809L192 807L195 801L195 798L196 797L196 790L194 786L187 780L185 780L182 778L177 778L170 784L169 786L169 791L165 798L165 800L156 815L143 829L135 834L131 834L127 829L127 820L128 819L128 816L129 815L129 812L130 811L130 805L134 798L134 796L136 794L139 788L144 782L146 777L144 775L142 775L138 777L135 777L134 778L126 780L123 782L121 780L122 777L130 770L131 770L137 764L138 762L137 760L130 760L128 758L128 757L130 755L133 755L134 754L137 754L138 753L144 753L145 752L153 752L154 751L157 751L158 750L163 749L166 746L168 746L170 748L173 754L174 754L178 750ZM171 741L173 739L179 742L180 744L177 747L174 747L172 745L172 742ZM68 727L65 723L62 723L61 722L56 722L55 721L47 721L46 722L42 722L39 725L39 730L42 735L42 737L41 738L34 738L33 737L30 737L29 736L20 736L19 737L19 739L22 742L32 748L37 748L38 747L41 747L42 746L45 746L46 745L61 745L62 746L65 746L67 747L68 746L68 742L65 738L51 738L46 734L46 732L50 729L63 729L67 731L68 730ZM59 684L58 685L58 687L59 688L58 690L46 690L45 689L41 689L40 688L35 688L34 689L34 690L43 698L46 698L48 696L55 696L62 702L62 704L61 705L44 705L43 704L40 704L38 703L37 704L37 706L46 714L48 714L51 711L63 711L68 707L68 702L65 699L69 695L69 691ZM21 672L19 674L20 678L22 680L27 680L28 679L28 675L26 672ZM70 677L70 674L68 672L64 670L61 670L60 669L54 672L44 672L43 671L37 671L36 672L36 675L38 677L44 680L55 679L56 678L58 679L67 679ZM21 656L21 657L24 660L25 660L31 665L34 665L35 664L68 664L71 662L71 659L70 658L65 656L61 653L58 653L55 657L40 657L38 656L36 654L36 653L28 646L27 646L26 648L31 654L29 656L25 656L24 655L22 655ZM38 632L38 636L40 639L40 646L42 648L49 650L50 649L50 647L46 643L47 641L49 641L51 643L59 647L65 652L67 653L70 653L71 652L71 650L70 649L70 645L72 643L72 640L70 637L67 636L63 633L61 634L61 638L66 643L66 644L64 646L63 646L58 643L55 640L47 636L45 634L41 632ZM19 619L19 621L24 626L27 626L29 624L29 621L27 618L25 617L22 617ZM71 624L71 619L69 617L65 616L61 613L60 614L61 617L59 619L46 619L45 618L41 618L40 617L37 617L36 618L36 619L39 622L40 622L45 626L57 626L58 625L70 625ZM16 598L16 602L21 606L22 606L26 610L28 610L31 608L42 608L43 607L46 607L47 608L68 608L71 606L71 602L68 599L67 599L63 603L62 603L61 602L53 602L52 601L39 601L38 600L33 600L32 599L24 599L21 597L17 597ZM39 576L39 582L40 583L40 585L45 591L48 592L50 594L61 595L67 592L69 589L69 585L67 581L60 572L58 572L57 571L49 571L48 572L42 573ZM46 583L51 579L53 579L54 578L60 578L65 583L66 586L62 590L59 590L58 591L53 591L49 589L46 586ZM40 546L40 551L45 558L45 559L40 563L40 565L41 566L43 566L47 564L50 564L51 565L69 565L70 566L87 566L88 567L91 567L95 571L97 571L98 570L98 566L91 560L88 560L87 559L78 559L77 558L70 558L68 556L70 554L69 548L67 546L63 544L61 544L56 541L49 541L46 543L42 544ZM46 552L49 549L60 549L64 552L64 555L65 556L63 558L61 558L60 559L49 558L46 555ZM565 536L563 538L563 541L564 543L567 545L570 545L571 544L571 539L569 537ZM554 543L554 541L550 539L546 535L540 535L539 536L533 536L532 537L524 537L523 538L523 542L530 549L531 548L530 544L532 542L545 542L546 543L550 543L551 544L553 544ZM41 521L41 528L42 530L48 536L52 538L56 538L57 539L64 539L65 538L69 537L71 535L71 528L70 527L70 524L66 520L58 516L49 516L46 518L44 518ZM46 527L49 524L55 523L56 522L60 522L65 525L69 529L69 531L64 535L52 535L46 530ZM577 531L577 529L574 525L569 522L564 521L559 516L559 514L560 513L569 513L570 512L570 511L561 503L557 505L555 504L527 504L524 506L524 509L526 511L529 512L533 515L535 514L535 512L537 510L549 510L551 511L559 519L559 521L558 522L524 521L523 522L523 525L533 531L535 530L535 528L537 526L539 527L548 527L549 528L563 529L564 530L568 530L569 531ZM375 489L374 490L374 496L373 497L373 503L374 504L374 507L377 509L385 509L390 503L390 501L391 500L391 499L389 497L389 494L385 489ZM39 489L39 490L42 493L42 495L41 496L41 498L42 499L42 503L44 507L50 511L54 511L55 512L62 512L63 511L69 510L71 508L72 506L72 500L70 496L67 493L64 492L62 490L60 490L59 489L58 491L65 495L67 497L67 500L63 504L59 505L58 506L55 506L54 505L49 504L46 501L46 499L48 497L50 497L52 495L52 494L48 492L45 492L40 488ZM525 474L525 477L526 478L530 478L531 479L535 479L536 480L543 480L547 482L550 485L544 490L536 490L529 486L527 486L526 487L526 490L528 492L532 493L538 496L547 496L552 492L553 488L550 484L550 482L551 481L569 481L570 482L574 482L575 481L573 475L569 471L562 471L561 472L558 472L557 473L554 473L553 474L545 474L544 473L532 473L529 471L527 471ZM71 467L69 465L63 462L61 462L57 460L51 460L48 462L46 462L43 466L43 471L45 473L45 475L44 476L29 476L28 475L21 474L20 475L20 479L26 486L29 486L30 487L33 487L38 484L64 484L68 486L71 486L72 480L70 478L64 478L63 477L58 477L57 476L51 476L47 473L47 471L52 467L61 467L68 471L70 471L71 470ZM525 450L525 458L526 459L526 461L529 464L537 467L538 466L533 463L529 459L529 458L533 453L537 452L538 451L542 451L543 452L548 453L551 456L551 458L549 460L547 460L545 462L545 463L552 466L554 468L556 467L554 465L554 457L553 456L553 454L547 447L545 446L540 446L539 445L537 445L536 446L531 446L527 448ZM18 425L19 429L22 432L27 435L30 435L32 436L36 441L35 443L26 443L25 444L25 445L35 454L37 453L51 453L52 452L66 453L67 452L71 452L73 450L73 447L64 442L62 442L59 446L47 446L36 437L38 435L40 435L41 434L51 434L52 435L58 435L59 436L73 436L74 435L74 432L71 429L65 426L62 426L61 428L59 430L58 430L57 429L53 429L52 428L37 428L36 427L33 427L32 426L27 426L26 425L21 425L20 424ZM526 423L526 431L527 433L531 437L536 440L538 440L539 441L550 440L552 439L555 435L555 432L554 431L553 427L546 420L544 420L543 419L538 419L537 418L533 418L532 419L530 419ZM528 425L532 422L544 422L545 423L547 423L551 427L551 430L546 434L543 434L542 435L536 435L531 432L527 428ZM25 411L24 412L24 417L27 420L32 420L33 419L33 416L32 414L28 411ZM74 419L74 415L66 407L65 407L65 410L67 412L64 415L62 415L61 414L51 414L50 413L47 413L46 412L42 412L41 413L41 414L44 417L52 422L54 422L58 420L73 420ZM368 408L367 410L368 415L373 420L375 421L378 421L379 422L384 422L385 421L388 421L390 420L394 416L396 412L395 407L392 404L385 401L375 402ZM237 390L235 389L225 389L224 390L222 390L217 395L217 397L215 401L216 407L221 411L226 411L232 408L234 408L240 402L240 400L241 399L241 394ZM499 388L499 391L504 396L508 397L509 398L516 398L517 399L546 399L548 400L551 403L551 406L547 409L538 409L537 408L534 408L532 406L532 404L531 403L529 403L528 404L528 410L533 413L535 413L541 416L546 416L547 415L552 414L555 412L555 406L551 401L551 398L555 394L555 392L552 392L549 394L547 393L528 393L527 392L508 391L507 390L505 390L502 387L500 387ZM528 368L528 374L529 376L537 385L539 386L548 386L549 385L552 385L556 382L556 375L554 371L548 365L544 363L534 363ZM530 371L535 367L537 367L538 366L543 366L547 368L550 371L550 375L548 377L540 380L539 379L535 379L531 375ZM476 365L475 364L462 364L459 366L457 366L449 370L445 373L443 373L442 372L442 370L444 368L444 366L447 363L451 355L450 355L450 356L446 360L445 364L441 369L440 372L436 376L436 377L423 388L423 390L424 391L427 390L434 383L435 383L441 378L449 374L454 370L456 370L459 368L469 367L471 369L470 373L455 388L441 395L439 397L431 399L428 401L424 401L422 403L422 405L425 408L426 408L426 406L428 404L431 404L436 401L438 401L445 396L449 395L454 392L460 386L461 386L464 382L466 381L469 375L471 373L472 373L475 369ZM579 358L579 357L575 353L574 353L569 349L565 349L564 350L528 350L526 352L526 356L528 358L529 358L532 355L557 356L558 357L562 357L563 358L569 358L570 359L573 359L574 360L576 360ZM569 332L567 334L567 337L570 340L574 340L575 339L575 336L572 333ZM526 334L526 339L529 341L532 341L534 343L535 343L534 340L536 338L547 338L548 339L554 339L555 340L558 340L558 338L550 332L539 332L538 333L527 333ZM456 332L450 334L447 337L446 337L439 343L438 343L424 358L422 357L422 346L421 346L421 355L419 359L419 363L416 369L416 371L412 377L412 380L414 379L415 375L418 372L419 369L421 367L424 361L431 354L431 353L433 352L434 350L435 350L440 345L444 343L450 338L454 338L455 339L454 343L456 342L456 339L458 336L458 334ZM526 307L528 311L525 317L530 323L532 324L534 323L534 319L530 316L530 315L533 312L538 314L544 319L550 322L553 325L555 326L557 325L557 322L555 319L555 314L553 311L549 309L547 309L547 311L552 315L552 316L550 318L549 318L529 306L527 306ZM526 297L526 298L528 300L536 305L538 304L538 302L540 300L555 300L557 301L562 306L562 307L567 311L568 309L563 303L565 301L571 301L572 300L569 297L564 294L558 294L557 295L548 295L547 294L533 295L532 294L530 294ZM569 279L568 280L568 284L570 286L573 286L575 284L575 282L572 279ZM559 286L558 283L556 281L552 279L546 279L545 280L528 280L527 281L527 284L534 288L537 288L540 286L556 286L557 287ZM550 246L548 246L545 248L535 248L534 249L532 249L529 252L529 256L533 260L533 261L531 263L529 263L528 264L528 267L535 273L537 273L537 272L535 270L537 268L549 268L550 269L555 269L556 270L559 270L560 269L560 268L557 265L556 265L551 261L547 263L541 263L536 260L532 256L535 253L555 253L556 254L557 252ZM574 220L569 216L566 215L562 212L558 212L557 213L554 213L550 215L547 215L546 214L539 214L537 215L536 214L532 214L531 213L529 213L528 214L528 217L530 219L532 220L546 220L549 223L551 228L549 230L545 230L544 231L532 230L531 229L529 229L528 230L531 235L536 235L537 236L541 236L542 237L552 237L555 234L555 229L551 224L551 223L553 221L555 221L556 220L561 220L565 222L574 222ZM473 171L472 171L470 176L468 178L468 180L465 183L463 188L461 190L459 194L450 203L448 204L447 208L453 213L463 213L470 210L475 205L477 205L478 206L478 210L474 217L467 223L465 224L462 224L461 225L457 225L456 226L447 224L446 225L448 228L459 229L460 228L467 226L476 218L480 210L479 202L477 199L476 199L474 201L474 203L470 207L462 211L455 211L452 208L454 203L458 199L458 198L462 193L463 190L465 188L467 184L467 181L470 178L470 176ZM398 163L392 168L389 174L389 180L391 183L391 185L389 188L389 191L388 193L390 197L393 200L397 202L402 202L406 204L410 208L410 210L408 212L408 218L406 220L403 220L402 221L402 224L406 229L410 230L414 233L416 233L426 240L430 242L434 241L436 239L436 232L440 228L440 227L439 226L435 227L430 223L424 223L422 221L421 219L421 216L420 215L413 216L411 214L411 213L414 210L414 207L405 199L398 199L397 198L395 198L391 194L391 188L394 184L394 182L391 179L391 174L393 172L393 170L395 168L403 164L406 164L408 166L408 168L404 173L404 181L406 185L412 191L414 192L420 192L423 190L422 189L420 189L419 190L413 189L406 182L405 180L405 176L406 175L406 173L412 167L413 167L414 165L410 162L401 162L400 163ZM414 221L416 219L418 219L420 221L420 223L418 225L417 225L414 222ZM479 140L477 138L475 138L471 140L466 144L463 145L461 147L456 149L452 153L451 153L442 162L442 163L434 172L431 178L426 184L425 187L426 187L429 184L429 183L432 180L433 177L442 167L442 166L454 154L455 154L456 152L465 148L468 145L471 144L473 142L476 142L478 144L478 150L479 151L480 149L480 142ZM178 115L173 143L196 185L170 171L169 191L204 212L200 231L215 251L208 292L225 280L273 383L239 363L216 304L213 336L182 308L192 346L152 330L198 381L194 393L201 378L155 329L209 366L186 315L223 361L218 312L237 368L286 409L219 430L202 422L193 397L186 487L195 564L185 576L132 561L172 591L117 613L169 612L157 647L205 605L223 611L189 674L169 661L175 717L207 733L251 700L231 696L239 674L225 676L252 605L281 686L276 713L289 720L283 743L309 747L323 652L335 638L331 623L330 645L306 638L320 613L344 618L346 599L381 677L359 681L390 703L353 704L401 738L417 735L402 753L430 748L388 786L382 810L404 821L396 803L408 793L423 830L458 851L447 794L473 806L458 778L471 772L446 761L439 733L421 734L436 724L435 665L420 685L378 618L401 617L447 654L437 625L465 629L480 618L439 596L484 558L426 584L410 565L416 551L405 561L394 543L369 553L363 522L391 516L367 509L369 480L395 487L397 473L418 468L424 494L398 500L395 490L395 516L398 502L418 504L422 527L394 533L423 530L417 431L427 413L409 432L373 438L336 411L375 384L400 384L418 314L399 378L347 389L394 300L402 310L413 285L425 304L431 250L395 231L387 251L357 267L379 269L364 283L383 285L342 356L331 225L303 218L305 264L279 347L253 296L271 269L237 229L253 166L245 156L220 178L204 139ZM434 750L439 750L443 754L444 756L444 766L445 767L447 767L448 766L453 766L454 767L457 767L459 769L459 770L456 773L454 774L447 774L446 776L448 778L451 778L452 779L456 780L468 792L470 796L470 798L468 800L465 800L452 790L445 787L442 787L441 788L441 791L446 797L448 802L450 804L455 814L456 820L458 824L458 842L454 846L442 843L440 841L437 840L423 825L421 820L419 818L419 816L417 814L417 812L416 811L416 809L413 802L413 791L411 789L404 790L398 796L397 798L397 802L395 803L394 805L394 813L395 815L393 817L390 816L385 811L384 809L384 806L383 805L383 800L385 797L385 795L387 791L398 780L399 780L402 777L404 777L408 774L410 774L412 771L411 761L413 759L416 759L417 758L424 758L425 759L427 759L429 755ZM313 685L313 687L315 690L315 695L319 704L319 708L317 711L313 713L310 713L308 715L305 715L301 711L300 704L298 702L296 702L294 704L294 707L295 709L294 710L294 713L292 715L284 715L283 714L281 714L277 710L278 708L277 706L278 704L278 698L281 693L281 690L286 683L288 682L291 682L293 683L296 689L301 689L304 683L306 681L311 683ZM306 646L315 651L320 651L323 654L323 658L324 659L324 662L325 663L325 670L326 671L326 675L323 679L319 681L314 681L310 679L307 676L306 676L303 672L303 666L300 660L300 657L301 656L301 652L302 650ZM293 644L295 646L297 650L297 660L296 661L295 667L294 668L294 674L293 676L289 679L287 679L284 681L280 681L278 680L272 674L272 668L271 666L272 665L272 659L273 658L273 655L280 648L284 646L288 646L289 645ZM265 622L268 619L272 617L274 617L277 614L280 614L288 625L290 629L293 640L291 642L284 643L281 645L272 645L268 643L264 639L265 637L264 635ZM342 588L346 592L345 596L344 597L342 595L342 593L341 592L341 589ZM259 586L260 587L260 589L258 591L257 590L257 587ZM353 589L362 580L362 573L369 569L380 558L387 558L389 560L394 561L396 563L405 566L411 570L417 576L421 584L421 589L422 590L424 590L444 572L459 564L474 560L477 560L479 562L479 564L473 572L462 581L458 582L453 586L447 588L434 596L426 596L423 599L424 603L429 602L443 603L465 611L474 618L474 620L470 624L465 626L451 625L432 618L417 606L415 608L415 610L424 617L438 632L445 644L445 647L443 649L434 646L426 641L407 622L404 617L404 612L401 612L397 614L384 614L377 612L372 607L374 604L381 604L387 600L392 600L397 603L404 602L406 600L407 595L405 589L397 582L396 578L393 574L390 572L384 572L381 575L379 579L379 588L373 594L370 599L368 599L361 595L355 595L353 593ZM373 560L373 562L370 565L361 570L354 571L347 574L343 574L342 575L342 578L339 582L323 582L322 583L322 586L325 589L325 591L326 591L326 587L327 586L337 585L339 587L339 593L341 596L341 598L345 606L345 608L347 610L347 611L343 615L336 615L335 614L331 614L327 612L324 609L324 605L326 601L326 598L325 598L325 600L323 603L322 607L318 611L312 614L298 614L297 613L292 613L291 612L289 612L281 607L278 604L277 601L276 601L276 603L279 609L271 615L263 616L262 615L257 614L254 610L254 606L261 592L262 587L266 582L275 582L279 585L279 588L276 594L277 594L279 589L285 582L284 580L276 580L272 578L265 578L263 579L261 577L261 573L265 567L265 564L268 561L274 562L275 563L290 564L294 561L294 557L297 553L304 552L305 551L308 551L312 555L312 560L314 562L316 562L317 563L324 563L325 562L339 562L343 558L349 557L354 554L357 554L358 553L363 553L364 554L366 554ZM305 574L300 575L298 577L297 581L295 584L293 592L292 593L292 600L293 602L294 602L295 604L297 605L304 605L305 604L307 604L309 603L314 597L314 588L313 587L312 582L310 578ZM229 551L232 548L242 548L249 553L251 553L252 554L256 554L257 555L260 555L262 554L266 558L266 560L265 561L263 568L260 571L257 571L254 569L247 567L240 561L236 559L234 559L232 557L231 557L229 555ZM214 497L217 500L216 504L219 512L238 511L243 512L247 517L246 526L248 537L242 544L230 546L223 545L216 536L216 527L215 538L219 547L227 551L227 557L242 569L243 576L252 587L252 590L248 593L241 594L239 583L230 577L222 567L218 566L213 571L211 579L205 585L205 592L211 598L228 596L237 600L233 604L226 606L221 606L212 602L204 602L193 618L182 629L170 638L159 642L157 639L164 626L179 611L190 604L190 601L187 601L172 609L152 613L132 614L126 613L124 610L130 605L140 601L161 596L185 594L187 592L185 589L175 587L150 574L142 566L143 564L151 564L177 575L188 582L191 582L192 580L190 574L198 565L207 562L216 556L216 554L214 554L207 558L199 559L194 555L192 547L192 531L194 529L210 529L211 525L209 524L206 526L201 526L192 523L189 519L188 499L191 494L200 497ZM326 482L328 484L328 490L331 492L335 492L339 490L342 487L343 487L345 489L345 491L343 495L333 505L326 505L321 500L319 496L319 491L321 487ZM287 481L289 483L290 487L291 488L292 497L290 501L286 505L279 507L275 505L269 499L269 497L268 496L268 491L270 490L274 494L280 494L284 489L284 482L285 481ZM298 461L312 462L315 465L314 472L312 476L310 478L308 479L303 479L299 475L299 472L296 465L296 463ZM191 462L193 460L196 460L202 463L211 463L212 464L214 464L217 467L220 473L222 471L223 471L229 474L238 474L239 475L243 475L244 474L246 474L248 476L248 478L250 480L250 487L249 488L249 490L250 491L250 498L249 499L249 504L246 507L244 507L243 508L239 508L237 506L242 502L242 500L243 499L243 488L241 484L239 482L228 482L227 483L226 497L227 498L227 503L229 505L229 506L226 508L223 507L218 502L219 488L220 487L220 480L218 481L218 491L216 493L202 493L201 492L199 492L196 490L192 489L187 483L188 479L189 478L189 470L190 469L190 465L191 464ZM262 453L265 450L279 450L280 451L288 451L289 452L315 452L316 453L335 453L336 452L341 452L342 451L345 451L349 455L349 457L347 459L342 459L341 460L324 460L323 461L320 461L319 460L315 460L311 458L306 458L305 457L298 457L297 458L289 458L288 457L266 457L264 456L262 454ZM384 442L386 444L386 448L390 452L390 456L391 457L391 460L392 461L392 464L393 465L393 474L391 476L383 476L382 477L372 477L369 475L364 475L357 468L356 464L353 458L353 455L355 453L363 453L364 452L367 452L370 450L372 450L377 447L381 442ZM414 434L417 437L418 441L419 442L419 447L421 450L422 460L419 463L415 464L409 467L401 467L400 468L397 468L394 465L393 459L392 458L392 454L391 453L390 447L388 443L390 441L396 440L397 439L402 439L412 434ZM341 434L345 430L351 427L353 428L363 439L365 440L373 441L375 443L375 444L372 447L368 448L367 449L351 451L346 447L344 439ZM198 428L200 426L201 426L205 429L208 430L210 432L218 433L219 434L225 434L227 436L227 441L223 446L223 448L226 445L229 445L230 446L233 446L234 447L240 448L241 449L257 449L259 451L259 452L258 453L258 457L256 460L256 463L250 470L243 470L242 471L240 471L239 470L230 470L229 469L226 469L222 467L219 464L219 454L218 455L218 457L215 460L211 460L210 459L202 459L201 458L199 458L197 456L196 456L192 451L193 449L193 444L195 440L195 437L196 436ZM348 395L346 397L344 397L341 399L336 404L332 405L327 400L326 395L325 393L324 393L325 395L325 399L327 402L327 404L333 410L334 413L338 417L338 418L343 421L345 421L347 423L347 426L342 430L338 430L333 426L328 424L325 424L324 423L309 422L308 421L304 421L303 420L289 420L286 423L284 423L281 425L279 425L273 428L267 434L265 438L264 445L262 447L259 447L258 446L244 446L243 445L239 445L232 442L230 440L230 435L232 433L240 432L254 426L256 426L262 432L263 432L264 431L264 429L259 425L259 423L264 418L266 417L275 418L276 417L283 416L288 411L289 406L295 395L296 391L295 391L295 393L292 399L289 402L287 402L283 398L271 390L271 389L274 386L283 380L293 380L295 382L295 384L296 385L302 382L314 380L320 385L324 387L325 383L328 380L333 380L336 378L338 378L340 380L340 383L343 389ZM323 366L326 363L332 363L337 370L337 372L334 375L327 375L324 372ZM276 373L286 362L292 362L294 363L296 365L297 369L298 370L297 371L297 373L293 376L279 376ZM300 338L303 341L303 345L301 349L301 355L297 358L285 358L281 354L281 348L284 344L285 341L287 339L295 339L296 338ZM321 335L323 335L327 337L330 337L335 341L336 348L338 352L338 356L336 358L334 359L323 359L321 358L316 351L316 348L315 347L315 344L316 343L317 339ZM327 306L332 309L339 309L342 312L341 327L335 334L331 334L330 333L325 332L319 327L319 318L320 317L320 315ZM287 306L289 305L298 305L305 313L306 317L307 318L307 327L308 329L306 333L304 335L302 335L301 334L298 334L297 335L289 335L286 332L285 328L284 327L284 319L283 318L283 313L285 310L285 308ZM331 268L335 273L335 288L336 289L336 294L332 299L330 298L327 300L322 300L319 298L313 298L311 300L308 301L307 300L303 299L299 295L298 293L298 290L297 289L297 285L296 284L296 276L302 269L304 269L305 268L309 268L312 271L313 275L316 278L317 278L321 271L321 269L323 267L329 267ZM305 249L307 247L311 246L313 244L317 244L322 247L325 247L328 251L328 260L325 263L324 263L321 260L321 255L319 252L317 252L314 254L313 256L313 259L310 262L309 262L304 257L304 251ZM225 231L226 230L228 230L229 232L228 233L226 233ZM214 221L214 220L216 218L221 218L222 219L222 220L220 222L215 222ZM225 218L226 217L228 217L229 219L228 220L226 220ZM178 120L181 120L184 123L188 125L196 133L196 134L199 137L199 138L205 146L208 152L208 155L210 158L210 160L213 165L213 168L214 169L214 181L215 182L226 182L229 180L231 180L235 178L241 172L241 170L246 164L248 164L250 166L250 168L252 171L252 177L248 181L244 181L243 182L243 184L246 190L242 194L240 195L236 195L233 197L233 201L235 204L235 211L233 213L230 213L227 210L225 210L225 212L223 214L221 214L217 210L216 210L215 211L215 214L211 218L209 218L206 215L206 205L202 205L201 206L189 206L179 201L174 195L170 187L170 183L172 181L174 183L174 184L181 190L185 190L186 191L188 191L189 190L194 190L200 185L200 182L189 170L185 163L182 160L179 154L179 151L177 148L177 146L175 142L175 137L174 136L174 124ZM571 94L569 97L568 105L566 108L566 111L564 115L565 117L567 114L568 108L569 107L569 105L572 98L572 95ZM555 91L553 92L553 96L555 95ZM51 88L53 95L54 95L53 93L53 90L52 88ZM563 84L561 84L561 87L560 88L560 93L561 93ZM550 76L546 76L544 78L544 83L545 84L544 99L545 100L545 104L546 105L548 105L549 103L549 86L550 85L550 80L551 79L551 77ZM79 71L78 71L77 73L76 80L75 81L74 87L73 88L73 93L74 93L75 91L75 87L77 83L77 79L79 76ZM540 68L535 71L535 74L533 76L525 77L525 87L523 89L518 89L517 91L525 112L527 122L529 125L529 131L524 140L525 149L529 155L531 165L539 172L550 173L558 167L561 160L568 151L569 146L568 140L567 140L568 145L563 152L561 152L557 149L556 147L560 142L560 140L556 131L558 130L561 131L564 134L566 133L571 120L572 113L578 97L580 88L579 87L571 87L569 85L571 76L570 75L564 75L569 80L562 104L563 104L566 93L570 89L575 89L577 91L575 101L572 105L572 112L569 118L568 124L564 129L561 128L558 125L559 120L556 124L554 124L552 122L552 114L551 114L550 119L547 123L542 118L541 122L539 122L537 120L535 122L535 124L533 126L531 126L529 123L528 113L526 109L526 107L528 105L528 100L526 97L526 100L524 101L522 99L520 93L522 91L528 91L528 82L531 79L534 79L536 81L537 91L540 93L539 92L538 74L543 70L554 71L556 73L555 87L556 87L556 81L562 76L554 68L550 69ZM552 143L554 142L555 144L553 145ZM532 141L534 145L532 148L529 149L527 147L527 143L528 142ZM538 141L541 138L548 138L551 141L551 142L550 143L548 143L546 141L545 141L542 143L540 143ZM531 133L533 131L535 132L533 134ZM65 61L61 62L60 63L60 72L61 73L60 75L60 89L62 93L64 93L64 91L65 90L65 79L66 78L66 72L67 71L67 67L68 66L68 64ZM71 54L66 54L65 55L56 54L52 56L52 59L49 62L41 62L40 63L41 72L39 74L33 74L32 75L32 79L35 85L35 88L38 95L38 99L41 104L42 112L43 113L43 117L38 125L38 137L42 144L42 149L45 155L48 158L53 160L61 160L69 156L73 152L73 150L76 145L81 140L81 138L83 135L83 125L81 122L81 117L85 112L85 109L88 103L89 96L97 77L96 74L89 73L86 70L84 72L82 81L77 93L77 97L75 100L76 103L80 106L82 105L83 106L83 110L79 115L74 112L74 109L70 110L68 108L67 101L66 101L66 104L63 108L58 104L55 109L51 104L50 96L48 93L48 89L46 85L44 73L46 71L49 74L49 77L54 79L54 82L56 85L56 88L57 88L54 58L56 56L68 56L72 59L72 71L69 81L69 88L70 88L70 83L74 71L74 66L76 64L83 64L87 68L88 63L85 61L77 61L74 56ZM42 128L44 128L46 130L46 133L44 135L43 135L41 133L41 129ZM53 127L56 124L58 125L61 125L62 124L66 127L70 129L72 129L74 126L74 124L72 121L72 119L69 116L71 115L73 116L79 122L79 124L81 128L81 135L80 137L78 139L77 139L71 133L68 132L66 130L64 129L61 129L60 128L56 128L54 129ZM83 97L85 96L86 97L86 99L84 100L83 99ZM36 77L41 77L44 80L44 82L46 86L46 89L47 90L47 97L49 101L49 106L50 107L50 110L48 112L46 112L42 107L40 96L38 93L38 90L37 89L36 83L35 82L35 78ZM40 84L40 87L41 88L42 93L43 93L42 85ZM91 75L93 77L93 81L92 82L92 84L90 86L90 88L87 92L87 94L85 95L84 94L85 89L84 90L82 89L82 85L84 82L84 78L87 75ZM46 65L49 65L52 68L53 70L53 75L52 76L51 76L49 74L49 72L47 70L46 71L44 69L44 67ZM322 50L319 52L318 55L314 60L314 63L313 64L313 73L314 75L318 78L327 78L329 77L335 70L335 56L328 50ZM320 54L324 54L328 58L330 62L330 72L328 74L324 74L322 73L320 71L319 71L316 67L317 57ZM284 50L278 55L278 58L279 59L281 59L282 58L282 56L285 53L288 56L289 59L277 69L276 71L276 75L278 77L291 76L294 78L296 78L297 76L294 72L294 62L295 61L295 54L290 50ZM288 64L290 66L290 68L286 72L284 72L282 70L282 68L286 64ZM576 56L576 54L575 53L575 45L576 44L576 41L578 38L578 35L577 34L572 36L566 42L566 43L561 47L553 47L551 45L551 41L550 39L546 36L542 36L538 39L538 41L537 42L537 46L536 47L529 47L521 38L517 37L516 36L514 37L518 45L519 55L520 56L562 56L563 57L575 57ZM535 52L536 51L544 50L545 51L547 51L548 53L547 54L536 54ZM520 42L523 45L523 48L526 51L524 53L523 53L519 48L518 44ZM575 40L575 45L573 48L573 52L571 54L552 54L551 53L552 51L564 51L566 48L566 45L573 38ZM356 33L355 33L349 39L349 40L347 42L347 48L343 51L343 52L346 52L349 56L349 69L350 70L350 78L351 79L359 79L361 77L361 76L358 76L356 77L354 75L354 52L358 47L362 46L364 44L364 43L363 42L358 43L356 41L356 36L357 35ZM255 28L254 28L250 32L249 32L243 38L245 43L240 48L241 49L244 49L247 53L247 71L251 76L254 76L256 74L257 74L262 68L261 67L256 72L254 72L252 70L252 50L256 45L258 45L262 43L264 41L263 39L259 39L257 40L255 38L255 31L256 30ZM381 23L375 30L371 32L372 38L373 39L373 53L374 54L374 76L375 78L379 81L383 80L387 75L386 73L381 78L379 78L377 76L378 54L379 53L379 47L380 46L380 37L381 36L381 28L382 27L382 24ZM31 22L35 31L35 41L36 42L76 42L77 43L84 43L85 44L93 44L94 43L94 40L93 39L93 33L94 32L94 29L97 23L97 21L95 22L92 22L86 27L86 28L87 28L92 25L94 27L92 30L92 37L89 41L86 41L83 38L83 32L81 33L71 33L69 31L68 25L64 22L58 23L56 25L55 27L55 31L53 33L47 33L45 32L36 22L34 21L32 21ZM68 38L69 37L77 37L78 39L77 40L69 40ZM55 38L56 37L60 37L61 39L60 40L56 40ZM38 28L40 30L40 32L42 34L42 37L41 38L39 38L37 36L37 32L36 30ZM7 0L0 0L0 10L1 9L2 5Z"></path>
</g>
<rect x="1" y="1" width="598" height="958" rx="28" fill="none" stroke="#d6d6d0" stroke-width="2"></rect>
</svg>